<svg id="visual" viewBox="0 0 960 540" width="960" height="540" xmlns="http://www.w3.org/2000/svg" xmlns:xlink="http://www.w3.org/1999/xlink" version="1.1"><g><g transform="translate(646 115)"><path d="M0 -39.4L37.4 -12.2L23.1 31.8L-23.1 31.8L-37.4 -12.2Z" stroke="#2083b1" fill="none" stroke-width="2"></path></g><g transform="translate(55 470)"><path d="M0 -21L20 -6.5L12.3 17L-12.3 17L-20 -6.5Z" stroke="#2083b1" fill="none" stroke-width="2"></path></g><g transform="translate(194 404)"><path d="M0 -30L28.5 -9.3L17.6 24.3L-17.6 24.3L-28.5 -9.3Z" stroke="#2083b1" fill="none" stroke-width="2"></path></g><g transform="translate(887 257)"><path d="M0 -19L18.1 -5.9L11.2 15.4L-11.2 15.4L-18.1 -5.9Z" stroke="#2083b1" fill="none" stroke-width="2"></path></g><g transform="translate(164 323)"><path d="M0 -18L17.1 -5.6L10.6 14.6L-10.6 14.6L-17.1 -5.6Z" stroke="#2083b1" fill="none" stroke-width="2"></path></g><g transform="translate(66 329)"><path d="M0 -36L34.2 -11.1L21.2 29.1L-21.2 29.1L-34.2 -11.1Z" stroke="#2083b1" fill="none" stroke-width="2"></path></g><g transform="translate(369 387)"><path d="M0 -19L18.1 -5.9L11.2 15.4L-11.2 15.4L-18.1 -5.9Z" stroke="#2083b1" fill="none" stroke-width="2"></path></g><g transform="translate(719 475)"><path d="M0 -18L17.1 -5.6L10.6 14.6L-10.6 14.6L-17.1 -5.6Z" stroke="#2083b1" fill="none" stroke-width="2"></path></g><g transform="translate(556 210)"><path d="M0 -19L18.1 -5.9L11.2 15.4L-11.2 15.4L-18.1 -5.9Z" stroke="#2083b1" fill="none" stroke-width="2"></path></g><g transform="translate(830 535)"><path d="M0 -33L31.4 -10.2L19.4 26.7L-19.4 26.7L-31.4 -10.2Z" stroke="#2083b1" fill="none" stroke-width="2"></path></g><g transform="translate(407 31)"><path d="M0 -14L13.3 -4.3L8.2 11.3L-8.2 11.3L-13.3 -4.3Z" stroke="#2083b1" fill="none" stroke-width="2"></path></g><g transform="translate(443 420)"><path d="M0 -35L33.3 -10.8L20.6 28.3L-20.6 28.3L-33.3 -10.8Z" stroke="#2083b1" fill="none" stroke-width="2"></path></g><g transform="translate(621 442)"><path d="M0 -15L14.3 -4.6L8.8 12.1L-8.8 12.1L-14.3 -4.6Z" stroke="#2083b1" fill="none" stroke-width="2"></path></g><g transform="translate(808 383)"><path d="M0 -22L20.9 -6.8L12.9 17.8L-12.9 17.8L-20.9 -6.8Z" stroke="#2083b1" fill="none" stroke-width="2"></path></g><g transform="translate(744 104)"><path d="M0 -16L15.2 -4.9L9.4 12.9L-9.4 12.9L-15.2 -4.9Z" stroke="#2083b1" fill="none" stroke-width="2"></path></g><g transform="translate(817 152)"><path d="M0 -37L35.2 -11.4L21.7 29.9L-21.7 29.9L-35.2 -11.4Z" stroke="#2083b1" fill="none" stroke-width="2"></path></g><g transform="translate(922 350)"><path d="M0 -37L35.2 -11.4L21.7 29.9L-21.7 29.9L-35.2 -11.4Z" stroke="#2083b1" fill="none" stroke-width="2"></path></g><g transform="translate(636 18)"><path d="M0 -27L25.7 -8.3L15.9 21.8L-15.9 21.8L-25.7 -8.3Z" stroke="#2083b1" fill="none" stroke-width="2"></path></g><g transform="translate(256 231)"><path d="M0 -15L14.3 -4.6L8.8 12.1L-8.8 12.1L-14.3 -4.6Z" stroke="#2083b1" fill="none" stroke-width="2"></path></g><g transform="translate(7 538)"><path d="M0 -30L28.5 -9.3L17.6 24.3L-17.6 24.3L-28.5 -9.3Z" stroke="#2083b1" fill="none" stroke-width="2"></path></g><g transform="translate(440 335)"><path d="M0 -21L20 -6.5L12.3 17L-12.3 17L-20 -6.5Z" stroke="#2083b1" fill="none" stroke-width="2"></path></g><g transform="translate(388 174)"><path d="M0 -23L21.9 -7.1L13.5 18.6L-13.5 18.6L-21.9 -7.1Z" stroke="#2083b1" fill="none" stroke-width="2"></path></g><g transform="translate(902 164)"><path d="M0 -22L20.9 -6.8L12.9 17.8L-12.9 17.8L-20.9 -6.8Z" stroke="#2083b1" fill="none" stroke-width="2"></path></g><g transform="translate(269 148)"><path d="M0 -22L20.9 -6.8L12.9 17.8L-12.9 17.8L-20.9 -6.8Z" stroke="#2083b1" fill="none" stroke-width="2"></path></g><g transform="translate(293 520)"><path d="M0 -26L24.7 -8L15.3 21L-15.3 21L-24.7 -8Z" stroke="#2083b1" fill="none" stroke-width="2"></path></g><g transform="translate(560 101)"><path d="M0 -28L26.6 -8.7L16.5 22.7L-16.5 22.7L-26.6 -8.7Z" stroke="#2083b1" fill="none" stroke-width="2"></path></g><g transform="translate(157 64)"><path d="M0 -19L18.1 -5.9L11.2 15.4L-11.2 15.4L-18.1 -5.9Z" stroke="#2083b1" fill="none" stroke-width="2"></path></g><g transform="translate(770 302)"><path d="M0 -17L16.2 -5.3L10 13.8L-10 13.8L-16.2 -5.3Z" stroke="#2083b1" fill="none" stroke-width="2"></path></g><g transform="translate(646 329)"><path d="M0 -31L29.5 -9.6L18.2 25.1L-18.2 25.1L-29.5 -9.6Z" stroke="#2083b1" fill="none" stroke-width="2"></path></g><g transform="translate(140 480)"><path d="M0 -16L15.2 -4.9L9.4 12.9L-9.4 12.9L-15.2 -4.9Z" stroke="#2083b1" fill="none" stroke-width="2"></path></g><g transform="translate(934 22)"><path d="M0 -38L36.1 -11.7L22.3 30.7L-22.3 30.7L-36.1 -11.7Z" stroke="#2083b1" fill="none" stroke-width="2"></path></g><g transform="translate(384 504)"><path d="M0 -29L27.6 -9L17 23.5L-17 23.5L-27.6 -9Z" stroke="#2083b1" fill="none" stroke-width="2"></path></g><g transform="translate(778 222)"><path d="M0 -35L33.3 -10.8L20.6 28.3L-20.6 28.3L-33.3 -10.8Z" stroke="#2083b1" fill="none" stroke-width="2"></path></g><g transform="translate(6 53)"><path d="M0 -29L27.6 -9L17 23.5L-17 23.5L-27.6 -9Z" stroke="#2083b1" fill="none" stroke-width="2"></path></g><g transform="translate(641 222)"><path d="M0 -21L20 -6.5L12.3 17L-12.3 17L-20 -6.5Z" stroke="#2083b1" fill="none" stroke-width="2"></path></g><g transform="translate(537 518)"><path d="M0 -30L28.5 -9.3L17.6 24.3L-17.6 24.3L-28.5 -9.3Z" stroke="#2083b1" fill="none" stroke-width="2"></path></g><g transform="translate(323 44)"><path d="M0 -32L30.4 -9.9L18.8 25.9L-18.8 25.9L-30.4 -9.9Z" stroke="#2083b1" fill="none" stroke-width="2"></path></g><g transform="translate(485 251)"><path d="M0 -33L31.4 -10.2L19.4 26.7L-19.4 26.7L-31.4 -10.2Z" stroke="#2083b1" fill="none" stroke-width="2"></path></g><g transform="translate(2 135)"><path d="M0 -30L28.5 -9.3L17.6 24.3L-17.6 24.3L-28.5 -9.3Z" stroke="#2083b1" fill="none" stroke-width="2"></path></g><g transform="translate(282 429)"><path d="M0 -19L18.1 -5.9L11.2 15.4L-11.2 15.4L-18.1 -5.9Z" stroke="#2083b1" fill="none" stroke-width="2"></path></g><g transform="translate(815 27)"><path d="M0 -18L17.1 -5.6L10.6 14.6L-10.6 14.6L-17.1 -5.6Z" stroke="#2083b1" fill="none" stroke-width="2"></path></g><g transform="translate(147 211)"><path d="M0 -29L27.6 -9L17 23.5L-17 23.5L-27.6 -9Z" stroke="#2083b1" fill="none" stroke-width="2"></path></g><g transform="translate(538 316)"><path d="M0 -20L19 -6.2L11.8 16.2L-11.8 16.2L-19 -6.2Z" stroke="#2083b1" fill="none" stroke-width="2"></path></g><g transform="translate(16 237)"><path d="M0 -28L26.6 -8.7L16.5 22.7L-16.5 22.7L-26.6 -8.7Z" stroke="#2083b1" fill="none" stroke-width="2"></path></g><g transform="translate(384 262)"><path d="M0 -18L17.1 -5.6L10.6 14.6L-10.6 14.6L-17.1 -5.6Z" stroke="#2083b1" fill="none" stroke-width="2"></path></g><g transform="translate(298 347)"><path d="M0 -36L34.2 -11.1L21.2 29.1L-21.2 29.1L-34.2 -11.1Z" stroke="#2083b1" fill="none" stroke-width="2"></path></g><g transform="translate(228 14)"><path d="M0 -34L32.3 -10.5L20 27.5L-20 27.5L-32.3 -10.5Z" stroke="#2083b1" fill="none" stroke-width="2"></path></g><g transform="translate(936 434)"><path d="M0 -15L14.3 -4.6L8.8 12.1L-8.8 12.1L-14.3 -4.6Z" stroke="#2083b1" fill="none" stroke-width="2"></path></g><g transform="translate(487 152)"><path d="M0 -31L29.5 -9.6L18.2 25.1L-18.2 25.1L-29.5 -9.6Z" stroke="#2083b1" fill="none" stroke-width="2"></path></g><g transform="translate(523 439)"><path d="M0 -22L20.9 -6.8L12.9 17.8L-12.9 17.8L-20.9 -6.8Z" stroke="#2083b1" fill="none" stroke-width="2"></path></g><g transform="translate(91 5)"><path d="M0 -21L20 -6.5L12.3 17L-12.3 17L-20 -6.5Z" stroke="#2083b1" fill="none" stroke-width="2"></path></g><g transform="translate(710 376)"><path d="M0 -30L28.5 -9.3L17.6 24.3L-17.6 24.3L-28.5 -9.3Z" stroke="#2083b1" fill="none" stroke-width="2"></path></g><g transform="translate(88 146)"><path d="M0 -32L30.4 -9.9L18.8 25.9L-18.8 25.9L-30.4 -9.9Z" stroke="#2083b1" fill="none" stroke-width="2"></path></g><g transform="translate(524 18)"><path d="M0 -16L15.2 -4.9L9.4 12.9L-9.4 12.9L-15.2 -4.9Z" stroke="#2083b1" fill="none" stroke-width="2"></path></g><g transform="translate(943 526)"><path d="M0 -31L29.5 -9.6L18.2 25.1L-18.2 25.1L-29.5 -9.6Z" stroke="#2083b1" fill="none" stroke-width="2"></path></g><g transform="translate(621 534)"><path d="M0 -32L30.4 -9.9L18.8 25.9L-18.8 25.9L-30.4 -9.9Z" stroke="#2083b1" fill="none" stroke-width="2"></path></g><g transform="translate(220 491)"><path d="M0 -36L34.2 -11.1L21.2 29.1L-21.2 29.1L-34.2 -11.1Z" stroke="#2083b1" fill="none" stroke-width="2"></path></g><g transform="translate(189 144)"><path d="M0 -18L17.1 -5.6L10.6 14.6L-10.6 14.6L-17.1 -5.6Z" stroke="#2083b1" fill="none" stroke-width="2"></path></g><g transform="translate(731 9)"><path d="M0 -19L18.1 -5.9L11.2 15.4L-11.2 15.4L-18.1 -5.9Z" stroke="#2083b1" fill="none" stroke-width="2"></path></g><g transform="translate(2 377)"><path d="M0 -38L36.1 -11.7L22.3 30.7L-22.3 30.7L-36.1 -11.7Z" stroke="#2083b1" fill="none" stroke-width="2"></path></g><g transform="translate(458 538)"><path d="M0 -26L24.7 -8L15.3 21L-15.3 21L-24.7 -8Z" stroke="#2083b1" fill="none" stroke-width="2"></path></g><g transform="translate(105 399)"><path d="M0 -35L33.3 -10.8L20.6 28.3L-20.6 28.3L-33.3 -10.8Z" stroke="#2083b1" fill="none" stroke-width="2"></path></g><g transform="translate(878 86)"><path d="M0 -15L14.3 -4.6L8.8 12.1L-8.8 12.1L-14.3 -4.6Z" stroke="#2083b1" fill="none" stroke-width="2"></path></g><g transform="translate(849 455)"><path d="M0 -17L16.2 -5.3L10 13.8L-10 13.8L-16.2 -5.3Z" stroke="#2083b1" fill="none" stroke-width="2"></path></g></g></svg>