<svg id="visual" viewBox="0 0 960 540" width="960" height="540" xmlns="http://www.w3.org/2000/svg" xmlns:xlink="http://www.w3.org/1999/xlink" version="1.1"><g><g transform="translate(835 33)"><path d="M0 -12.8L12.2 -4L7.6 10.4L-7.6 10.4L-12.2 -4Z" stroke="#2083b1" fill="none" stroke-width="2"></path></g><g transform="translate(893 429)"><path d="M0 -3L2.9 -0.9L1.8 2.4L-1.8 2.4L-2.9 -0.9Z" stroke="#2083b1" fill="none" stroke-width="2"></path></g><g transform="translate(707 303)"><path d="M0 -10L9.5 -3.1L5.9 8.1L-5.9 8.1L-9.5 -3.1Z" stroke="#2083b1" fill="none" stroke-width="2"></path></g><g transform="translate(100 14)"><path d="M0 -5L4.8 -1.5L2.9 4L-2.9 4L-4.8 -1.5Z" stroke="#2083b1" fill="none" stroke-width="2"></path></g><g transform="translate(909 408)"><path d="M0 -11L10.5 -3.4L6.5 8.9L-6.5 8.9L-10.5 -3.4Z" stroke="#2083b1" fill="none" stroke-width="2"></path></g><g transform="translate(418 212)"><path d="M0 -6L5.7 -1.9L3.5 4.9L-3.5 4.9L-5.7 -1.9Z" stroke="#2083b1" fill="none" stroke-width="2"></path></g><g transform="translate(585 154)"><path d="M0 -7L6.7 -2.2L4.1 5.7L-4.1 5.7L-6.7 -2.2Z" stroke="#2083b1" fill="none" stroke-width="2"></path></g><g transform="translate(156 101)"><path d="M0 -9L8.6 -2.8L5.3 7.3L-5.3 7.3L-8.6 -2.8Z" stroke="#2083b1" fill="none" stroke-width="2"></path></g><g transform="translate(131 148)"><path d="M0 -11L10.5 -3.4L6.5 8.9L-6.5 8.9L-10.5 -3.4Z" stroke="#2083b1" fill="none" stroke-width="2"></path></g><g transform="translate(23 196)"><path d="M0 -9L8.6 -2.8L5.3 7.3L-5.3 7.3L-8.6 -2.8Z" stroke="#2083b1" fill="none" stroke-width="2"></path></g><g transform="translate(551 56)"><path d="M0 -4L3.8 -1.2L2.4 3.2L-2.4 3.2L-3.8 -1.2Z" stroke="#2083b1" fill="none" stroke-width="2"></path></g><g transform="translate(737 167)"><path d="M0 -9L8.6 -2.8L5.3 7.3L-5.3 7.3L-8.6 -2.8Z" stroke="#2083b1" fill="none" stroke-width="2"></path></g><g transform="translate(170 26)"><path d="M0 -7L6.7 -2.2L4.1 5.7L-4.1 5.7L-6.7 -2.2Z" stroke="#2083b1" fill="none" stroke-width="2"></path></g><g transform="translate(491 207)"><path d="M0 -3L2.9 -0.9L1.8 2.4L-1.8 2.4L-2.9 -0.9Z" stroke="#2083b1" fill="none" stroke-width="2"></path></g><g transform="translate(654 476)"><path d="M0 -1L1 -0.3L0.6 0.8L-0.6 0.8L-1 -0.3Z" stroke="#2083b1" fill="none" stroke-width="2"></path></g><g transform="translate(929 201)"><path d="M0 -3L2.9 -0.9L1.8 2.4L-1.8 2.4L-2.9 -0.9Z" stroke="#2083b1" fill="none" stroke-width="2"></path></g><g transform="translate(626 511)"><path d="M0 -9L8.6 -2.8L5.3 7.3L-5.3 7.3L-8.6 -2.8Z" stroke="#2083b1" fill="none" stroke-width="2"></path></g><g transform="translate(669 81)"><path d="M0 -11L10.5 -3.4L6.5 8.9L-6.5 8.9L-10.5 -3.4Z" stroke="#2083b1" fill="none" stroke-width="2"></path></g><g transform="translate(419 154)"><path d="M0 -1L1 -0.3L0.6 0.8L-0.6 0.8L-1 -0.3Z" stroke="#2083b1" fill="none" stroke-width="2"></path></g><g transform="translate(723 41)"><path d="M0 -1L1 -0.3L0.6 0.8L-0.6 0.8L-1 -0.3Z" stroke="#2083b1" fill="none" stroke-width="2"></path></g><g transform="translate(210 231)"><path d="M0 -8L7.6 -2.5L4.7 6.5L-4.7 6.5L-7.6 -2.5Z" stroke="#2083b1" fill="none" stroke-width="2"></path></g><g transform="translate(130 275)"><path d="M0 -5L4.8 -1.5L2.9 4L-2.9 4L-4.8 -1.5Z" stroke="#2083b1" fill="none" stroke-width="2"></path></g><g transform="translate(25 130)"><path d="M0 -7L6.7 -2.2L4.1 5.7L-4.1 5.7L-6.7 -2.2Z" stroke="#2083b1" fill="none" stroke-width="2"></path></g><g transform="translate(655 167)"><path d="M0 -8L7.6 -2.5L4.7 6.5L-4.7 6.5L-7.6 -2.5Z" stroke="#2083b1" fill="none" stroke-width="2"></path></g><g transform="translate(139 323)"><path d="M0 -6L5.7 -1.9L3.5 4.9L-3.5 4.9L-5.7 -1.9Z" stroke="#2083b1" fill="none" stroke-width="2"></path></g><g transform="translate(188 255)"><path d="M0 -9L8.6 -2.8L5.3 7.3L-5.3 7.3L-8.6 -2.8Z" stroke="#2083b1" fill="none" stroke-width="2"></path></g><g transform="translate(254 321)"><path d="M0 -1L1 -0.3L0.6 0.8L-0.6 0.8L-1 -0.3Z" stroke="#2083b1" fill="none" stroke-width="2"></path></g><g transform="translate(320 242)"><path d="M0 -9L8.6 -2.8L5.3 7.3L-5.3 7.3L-8.6 -2.8Z" stroke="#2083b1" fill="none" stroke-width="2"></path></g><g transform="translate(783 198)"><path d="M0 -1L1 -0.3L0.6 0.8L-0.6 0.8L-1 -0.3Z" stroke="#2083b1" fill="none" stroke-width="2"></path></g><g transform="translate(44 287)"><path d="M0 -7L6.7 -2.2L4.1 5.7L-4.1 5.7L-6.7 -2.2Z" stroke="#2083b1" fill="none" stroke-width="2"></path></g><g transform="translate(580 336)"><path d="M0 -10L9.5 -3.1L5.9 8.1L-5.9 8.1L-9.5 -3.1Z" stroke="#2083b1" fill="none" stroke-width="2"></path></g><g transform="translate(101 223)"><path d="M0 -11L10.5 -3.4L6.5 8.9L-6.5 8.9L-10.5 -3.4Z" stroke="#2083b1" fill="none" stroke-width="2"></path></g><g transform="translate(224 142)"><path d="M0 -3L2.9 -0.9L1.8 2.4L-1.8 2.4L-2.9 -0.9Z" stroke="#2083b1" fill="none" stroke-width="2"></path></g><g transform="translate(546 447)"><path d="M0 -11L10.5 -3.4L6.5 8.9L-6.5 8.9L-10.5 -3.4Z" stroke="#2083b1" fill="none" stroke-width="2"></path></g><g transform="translate(784 349)"><path d="M0 -6L5.7 -1.9L3.5 4.9L-3.5 4.9L-5.7 -1.9Z" stroke="#2083b1" fill="none" stroke-width="2"></path></g><g transform="translate(554 106)"><path d="M0 -5L4.8 -1.5L2.9 4L-2.9 4L-4.8 -1.5Z" stroke="#2083b1" fill="none" stroke-width="2"></path></g><g transform="translate(625 342)"><path d="M0 -7L6.7 -2.2L4.1 5.7L-4.1 5.7L-6.7 -2.2Z" stroke="#2083b1" fill="none" stroke-width="2"></path></g><g transform="translate(251 348)"><path d="M0 -1L1 -0.3L0.6 0.8L-0.6 0.8L-1 -0.3Z" stroke="#2083b1" fill="none" stroke-width="2"></path></g><g transform="translate(408 470)"><path d="M0 -11L10.5 -3.4L6.5 8.9L-6.5 8.9L-10.5 -3.4Z" stroke="#2083b1" fill="none" stroke-width="2"></path></g><g transform="translate(181 449)"><path d="M0 -5L4.8 -1.5L2.9 4L-2.9 4L-4.8 -1.5Z" stroke="#2083b1" fill="none" stroke-width="2"></path></g><g transform="translate(364 311)"><path d="M0 -4L3.8 -1.2L2.4 3.2L-2.4 3.2L-3.8 -1.2Z" stroke="#2083b1" fill="none" stroke-width="2"></path></g><g transform="translate(130 193)"><path d="M0 -1L1 -0.3L0.6 0.8L-0.6 0.8L-1 -0.3Z" stroke="#2083b1" fill="none" stroke-width="2"></path></g><g transform="translate(594 72)"><path d="M0 -2L1.9 -0.6L1.2 1.6L-1.2 1.6L-1.9 -0.6Z" stroke="#2083b1" fill="none" stroke-width="2"></path></g><g transform="translate(356 220)"><path d="M0 -10L9.5 -3.1L5.9 8.1L-5.9 8.1L-9.5 -3.1Z" stroke="#2083b1" fill="none" stroke-width="2"></path></g><g transform="translate(664 368)"><path d="M0 -11L10.5 -3.4L6.5 8.9L-6.5 8.9L-10.5 -3.4Z" stroke="#2083b1" fill="none" stroke-width="2"></path></g><g transform="translate(257 136)"><path d="M0 -7L6.7 -2.2L4.1 5.7L-4.1 5.7L-6.7 -2.2Z" stroke="#2083b1" fill="none" stroke-width="2"></path></g><g transform="translate(66 61)"><path d="M0 -8L7.6 -2.5L4.7 6.5L-4.7 6.5L-7.6 -2.5Z" stroke="#2083b1" fill="none" stroke-width="2"></path></g><g transform="translate(356 34)"><path d="M0 -2L1.9 -0.6L1.2 1.6L-1.2 1.6L-1.9 -0.6Z" stroke="#2083b1" fill="none" stroke-width="2"></path></g><g transform="translate(118 468)"><path d="M0 -8L7.6 -2.5L4.7 6.5L-4.7 6.5L-7.6 -2.5Z" stroke="#2083b1" fill="none" stroke-width="2"></path></g><g transform="translate(206 412)"><path d="M0 -11L10.5 -3.4L6.5 8.9L-6.5 8.9L-10.5 -3.4Z" stroke="#2083b1" fill="none" stroke-width="2"></path></g><g transform="translate(232 179)"><path d="M0 -2L1.9 -0.6L1.2 1.6L-1.2 1.6L-1.9 -0.6Z" stroke="#2083b1" fill="none" stroke-width="2"></path></g><g transform="translate(127 396)"><path d="M0 -11L10.5 -3.4L6.5 8.9L-6.5 8.9L-10.5 -3.4Z" stroke="#2083b1" fill="none" stroke-width="2"></path></g><g transform="translate(63 495)"><path d="M0 -4L3.8 -1.2L2.4 3.2L-2.4 3.2L-3.8 -1.2Z" stroke="#2083b1" fill="none" stroke-width="2"></path></g><g transform="translate(656 206)"><path d="M0 -9L8.6 -2.8L5.3 7.3L-5.3 7.3L-8.6 -2.8Z" stroke="#2083b1" fill="none" stroke-width="2"></path></g><g transform="translate(267 263)"><path d="M0 -10L9.5 -3.1L5.9 8.1L-5.9 8.1L-9.5 -3.1Z" stroke="#2083b1" fill="none" stroke-width="2"></path></g><g transform="translate(557 151)"><path d="M0 -3L2.9 -0.9L1.8 2.4L-1.8 2.4L-2.9 -0.9Z" stroke="#2083b1" fill="none" stroke-width="2"></path></g><g transform="translate(611 398)"><path d="M0 -2L1.9 -0.6L1.2 1.6L-1.2 1.6L-1.9 -0.6Z" stroke="#2083b1" fill="none" stroke-width="2"></path></g><g transform="translate(347 513)"><path d="M0 -11L10.5 -3.4L6.5 8.9L-6.5 8.9L-10.5 -3.4Z" stroke="#2083b1" fill="none" stroke-width="2"></path></g><g transform="translate(516 312)"><path d="M0 -10L9.5 -3.1L5.9 8.1L-5.9 8.1L-9.5 -3.1Z" stroke="#2083b1" fill="none" stroke-width="2"></path></g><g transform="translate(372 88)"><path d="M0 -4L3.8 -1.2L2.4 3.2L-2.4 3.2L-3.8 -1.2Z" stroke="#2083b1" fill="none" stroke-width="2"></path></g><g transform="translate(286 301)"><path d="M0 -6L5.7 -1.9L3.5 4.9L-3.5 4.9L-5.7 -1.9Z" stroke="#2083b1" fill="none" stroke-width="2"></path></g><g transform="translate(55 13)"><path d="M0 -3L2.9 -0.9L1.8 2.4L-1.8 2.4L-2.9 -0.9Z" stroke="#2083b1" fill="none" stroke-width="2"></path></g><g transform="translate(432 50)"><path d="M0 -2L1.9 -0.6L1.2 1.6L-1.2 1.6L-1.9 -0.6Z" stroke="#2083b1" fill="none" stroke-width="2"></path></g><g transform="translate(83 347)"><path d="M0 -3L2.9 -0.9L1.8 2.4L-1.8 2.4L-2.9 -0.9Z" stroke="#2083b1" fill="none" stroke-width="2"></path></g><g transform="translate(633 189)"><path d="M0 -2L1.9 -0.6L1.2 1.6L-1.2 1.6L-1.9 -0.6Z" stroke="#2083b1" fill="none" stroke-width="2"></path></g><g transform="translate(390 316)"><path d="M0 -10L9.5 -3.1L5.9 8.1L-5.9 8.1L-9.5 -3.1Z" stroke="#2083b1" fill="none" stroke-width="2"></path></g><g transform="translate(448 377)"><path d="M0 -3L2.9 -0.9L1.8 2.4L-1.8 2.4L-2.9 -0.9Z" stroke="#2083b1" fill="none" stroke-width="2"></path></g><g transform="translate(33 255)"><path d="M0 -9L8.6 -2.8L5.3 7.3L-5.3 7.3L-8.6 -2.8Z" stroke="#2083b1" fill="none" stroke-width="2"></path></g><g transform="translate(905 123)"><path d="M0 -1L1 -0.3L0.6 0.8L-0.6 0.8L-1 -0.3Z" stroke="#2083b1" fill="none" stroke-width="2"></path></g><g transform="translate(180 321)"><path d="M0 -1L1 -0.3L0.6 0.8L-0.6 0.8L-1 -0.3Z" stroke="#2083b1" fill="none" stroke-width="2"></path></g><g transform="translate(937 524)"><path d="M0 -6L5.7 -1.9L3.5 4.9L-3.5 4.9L-5.7 -1.9Z" stroke="#2083b1" fill="none" stroke-width="2"></path></g><g transform="translate(720 140)"><path d="M0 -8L7.6 -2.5L4.7 6.5L-4.7 6.5L-7.6 -2.5Z" stroke="#2083b1" fill="none" stroke-width="2"></path></g><g transform="translate(747 276)"><path d="M0 -10L9.5 -3.1L5.9 8.1L-5.9 8.1L-9.5 -3.1Z" stroke="#2083b1" fill="none" stroke-width="2"></path></g><g transform="translate(58 212)"><path d="M0 -2L1.9 -0.6L1.2 1.6L-1.2 1.6L-1.9 -0.6Z" stroke="#2083b1" fill="none" stroke-width="2"></path></g><g transform="translate(14 236)"><path d="M0 -7L6.7 -2.2L4.1 5.7L-4.1 5.7L-6.7 -2.2Z" stroke="#2083b1" fill="none" stroke-width="2"></path></g><g transform="translate(872 395)"><path d="M0 -3L2.9 -0.9L1.8 2.4L-1.8 2.4L-2.9 -0.9Z" stroke="#2083b1" fill="none" stroke-width="2"></path></g><g transform="translate(790 84)"><path d="M0 -5L4.8 -1.5L2.9 4L-2.9 4L-4.8 -1.5Z" stroke="#2083b1" fill="none" stroke-width="2"></path></g><g transform="translate(214 303)"><path d="M0 -3L2.9 -0.9L1.8 2.4L-1.8 2.4L-2.9 -0.9Z" stroke="#2083b1" fill="none" stroke-width="2"></path></g><g transform="translate(813 352)"><path d="M0 -3L2.9 -0.9L1.8 2.4L-1.8 2.4L-2.9 -0.9Z" stroke="#2083b1" fill="none" stroke-width="2"></path></g><g transform="translate(624 49)"><path d="M0 -9L8.6 -2.8L5.3 7.3L-5.3 7.3L-8.6 -2.8Z" stroke="#2083b1" fill="none" stroke-width="2"></path></g><g transform="translate(856 272)"><path d="M0 -5L4.8 -1.5L2.9 4L-2.9 4L-4.8 -1.5Z" stroke="#2083b1" fill="none" stroke-width="2"></path></g><g transform="translate(718 495)"><path d="M0 -2L1.9 -0.6L1.2 1.6L-1.2 1.6L-1.9 -0.6Z" stroke="#2083b1" fill="none" stroke-width="2"></path></g><g transform="translate(687 420)"><path d="M0 -4L3.8 -1.2L2.4 3.2L-2.4 3.2L-3.8 -1.2Z" stroke="#2083b1" fill="none" stroke-width="2"></path></g><g transform="translate(103 307)"><path d="M0 -10L9.5 -3.1L5.9 8.1L-5.9 8.1L-9.5 -3.1Z" stroke="#2083b1" fill="none" stroke-width="2"></path></g><g transform="translate(795 246)"><path d="M0 -5L4.8 -1.5L2.9 4L-2.9 4L-4.8 -1.5Z" stroke="#2083b1" fill="none" stroke-width="2"></path></g><g transform="translate(187 61)"><path d="M0 -1L1 -0.3L0.6 0.8L-0.6 0.8L-1 -0.3Z" stroke="#2083b1" fill="none" stroke-width="2"></path></g><g transform="translate(934 155)"><path d="M0 -9L8.6 -2.8L5.3 7.3L-5.3 7.3L-8.6 -2.8Z" stroke="#2083b1" fill="none" stroke-width="2"></path></g><g transform="translate(844 493)"><path d="M0 -11L10.5 -3.4L6.5 8.9L-6.5 8.9L-10.5 -3.4Z" stroke="#2083b1" fill="none" stroke-width="2"></path></g><g transform="translate(463 45)"><path d="M0 -5L4.8 -1.5L2.9 4L-2.9 4L-4.8 -1.5Z" stroke="#2083b1" fill="none" stroke-width="2"></path></g><g transform="translate(727 240)"><path d="M0 -2L1.9 -0.6L1.2 1.6L-1.2 1.6L-1.9 -0.6Z" stroke="#2083b1" fill="none" stroke-width="2"></path></g><g transform="translate(259 516)"><path d="M0 -7L6.7 -2.2L4.1 5.7L-4.1 5.7L-6.7 -2.2Z" stroke="#2083b1" fill="none" stroke-width="2"></path></g><g transform="translate(938 472)"><path d="M0 -10L9.5 -3.1L5.9 8.1L-5.9 8.1L-9.5 -3.1Z" stroke="#2083b1" fill="none" stroke-width="2"></path></g><g transform="translate(13 487)"><path d="M0 -3L2.9 -0.9L1.8 2.4L-1.8 2.4L-2.9 -0.9Z" stroke="#2083b1" fill="none" stroke-width="2"></path></g><g transform="translate(809 216)"><path d="M0 -11L10.5 -3.4L6.5 8.9L-6.5 8.9L-10.5 -3.4Z" stroke="#2083b1" fill="none" stroke-width="2"></path></g><g transform="translate(464 527)"><path d="M0 -2L1.9 -0.6L1.2 1.6L-1.2 1.6L-1.9 -0.6Z" stroke="#2083b1" fill="none" stroke-width="2"></path></g><g transform="translate(438 281)"><path d="M0 -2L1.9 -0.6L1.2 1.6L-1.2 1.6L-1.9 -0.6Z" stroke="#2083b1" fill="none" stroke-width="2"></path></g><g transform="translate(351 106)"><path d="M0 -5L4.8 -1.5L2.9 4L-2.9 4L-4.8 -1.5Z" stroke="#2083b1" fill="none" stroke-width="2"></path></g><g transform="translate(505 183)"><path d="M0 -4L3.8 -1.2L2.4 3.2L-2.4 3.2L-3.8 -1.2Z" stroke="#2083b1" fill="none" stroke-width="2"></path></g><g transform="translate(549 406)"><path d="M0 -3L2.9 -0.9L1.8 2.4L-1.8 2.4L-2.9 -0.9Z" stroke="#2083b1" fill="none" stroke-width="2"></path></g><g transform="translate(114 112)"><path d="M0 -1L1 -0.3L0.6 0.8L-0.6 0.8L-1 -0.3Z" stroke="#2083b1" fill="none" stroke-width="2"></path></g><g transform="translate(767 493)"><path d="M0 -5L4.8 -1.5L2.9 4L-2.9 4L-4.8 -1.5Z" stroke="#2083b1" fill="none" stroke-width="2"></path></g><g transform="translate(343 57)"><path d="M0 -3L2.9 -0.9L1.8 2.4L-1.8 2.4L-2.9 -0.9Z" stroke="#2083b1" fill="none" stroke-width="2"></path></g><g transform="translate(525 267)"><path d="M0 -11L10.5 -3.4L6.5 8.9L-6.5 8.9L-10.5 -3.4Z" stroke="#2083b1" fill="none" stroke-width="2"></path></g><g transform="translate(745 320)"><path d="M0 -7L6.7 -2.2L4.1 5.7L-4.1 5.7L-6.7 -2.2Z" stroke="#2083b1" fill="none" stroke-width="2"></path></g><g transform="translate(603 118)"><path d="M0 -3L2.9 -0.9L1.8 2.4L-1.8 2.4L-2.9 -0.9Z" stroke="#2083b1" fill="none" stroke-width="2"></path></g><g transform="translate(739 515)"><path d="M0 -6L5.7 -1.9L3.5 4.9L-3.5 4.9L-5.7 -1.9Z" stroke="#2083b1" fill="none" stroke-width="2"></path></g><g transform="translate(868 122)"><path d="M0 -11L10.5 -3.4L6.5 8.9L-6.5 8.9L-10.5 -3.4Z" stroke="#2083b1" fill="none" stroke-width="2"></path></g><g transform="translate(511 107)"><path d="M0 -6L5.7 -1.9L3.5 4.9L-3.5 4.9L-5.7 -1.9Z" stroke="#2083b1" fill="none" stroke-width="2"></path></g><g transform="translate(519 231)"><path d="M0 -11L10.5 -3.4L6.5 8.9L-6.5 8.9L-10.5 -3.4Z" stroke="#2083b1" fill="none" stroke-width="2"></path></g><g transform="translate(381 208)"><path d="M0 -8L7.6 -2.5L4.7 6.5L-4.7 6.5L-7.6 -2.5Z" stroke="#2083b1" fill="none" stroke-width="2"></path></g><g transform="translate(460 148)"><path d="M0 -6L5.7 -1.9L3.5 4.9L-3.5 4.9L-5.7 -1.9Z" stroke="#2083b1" fill="none" stroke-width="2"></path></g><g transform="translate(797 403)"><path d="M0 -5L4.8 -1.5L2.9 4L-2.9 4L-4.8 -1.5Z" stroke="#2083b1" fill="none" stroke-width="2"></path></g><g transform="translate(165 299)"><path d="M0 -7L6.7 -2.2L4.1 5.7L-4.1 5.7L-6.7 -2.2Z" stroke="#2083b1" fill="none" stroke-width="2"></path></g><g transform="translate(800 295)"><path d="M0 -3L2.9 -0.9L1.8 2.4L-1.8 2.4L-2.9 -0.9Z" stroke="#2083b1" fill="none" stroke-width="2"></path></g><g transform="translate(670 328)"><path d="M0 -7L6.7 -2.2L4.1 5.7L-4.1 5.7L-6.7 -2.2Z" stroke="#2083b1" fill="none" stroke-width="2"></path></g><g transform="translate(614 444)"><path d="M0 -5L4.8 -1.5L2.9 4L-2.9 4L-4.8 -1.5Z" stroke="#2083b1" fill="none" stroke-width="2"></path></g><g transform="translate(921 59)"><path d="M0 -2L1.9 -0.6L1.2 1.6L-1.2 1.6L-1.9 -0.6Z" stroke="#2083b1" fill="none" stroke-width="2"></path></g><g transform="translate(198 201)"><path d="M0 -11L10.5 -3.4L6.5 8.9L-6.5 8.9L-10.5 -3.4Z" stroke="#2083b1" fill="none" stroke-width="2"></path></g><g transform="translate(672 25)"><path d="M0 -3L2.9 -0.9L1.8 2.4L-1.8 2.4L-2.9 -0.9Z" stroke="#2083b1" fill="none" stroke-width="2"></path></g><g transform="translate(100 378)"><path d="M0 -11L10.5 -3.4L6.5 8.9L-6.5 8.9L-10.5 -3.4Z" stroke="#2083b1" fill="none" stroke-width="2"></path></g><g transform="translate(106 506)"><path d="M0 -3L2.9 -0.9L1.8 2.4L-1.8 2.4L-2.9 -0.9Z" stroke="#2083b1" fill="none" stroke-width="2"></path></g><g transform="translate(71 441)"><path d="M0 -2L1.9 -0.6L1.2 1.6L-1.2 1.6L-1.9 -0.6Z" stroke="#2083b1" fill="none" stroke-width="2"></path></g><g transform="translate(75 116)"><path d="M0 -7L6.7 -2.2L4.1 5.7L-4.1 5.7L-6.7 -2.2Z" stroke="#2083b1" fill="none" stroke-width="2"></path></g><g transform="translate(872 175)"><path d="M0 -7L6.7 -2.2L4.1 5.7L-4.1 5.7L-6.7 -2.2Z" stroke="#2083b1" fill="none" stroke-width="2"></path></g><g transform="translate(400 497)"><path d="M0 -10L9.5 -3.1L5.9 8.1L-5.9 8.1L-9.5 -3.1Z" stroke="#2083b1" fill="none" stroke-width="2"></path></g><g transform="translate(211 495)"><path d="M0 -6L5.7 -1.9L3.5 4.9L-3.5 4.9L-5.7 -1.9Z" stroke="#2083b1" fill="none" stroke-width="2"></path></g><g transform="translate(374 499)"><path d="M0 -5L4.8 -1.5L2.9 4L-2.9 4L-4.8 -1.5Z" stroke="#2083b1" fill="none" stroke-width="2"></path></g><g transform="translate(234 511)"><path d="M0 -10L9.5 -3.1L5.9 8.1L-5.9 8.1L-9.5 -3.1Z" stroke="#2083b1" fill="none" stroke-width="2"></path></g><g transform="translate(358 453)"><path d="M0 -2L1.9 -0.6L1.2 1.6L-1.2 1.6L-1.9 -0.6Z" stroke="#2083b1" fill="none" stroke-width="2"></path></g><g transform="translate(390 416)"><path d="M0 -5L4.8 -1.5L2.9 4L-2.9 4L-4.8 -1.5Z" stroke="#2083b1" fill="none" stroke-width="2"></path></g><g transform="translate(916 22)"><path d="M0 -11L10.5 -3.4L6.5 8.9L-6.5 8.9L-10.5 -3.4Z" stroke="#2083b1" fill="none" stroke-width="2"></path></g><g transform="translate(420 415)"><path d="M0 -2L1.9 -0.6L1.2 1.6L-1.2 1.6L-1.9 -0.6Z" stroke="#2083b1" fill="none" stroke-width="2"></path></g><g transform="translate(497 37)"><path d="M0 -9L8.6 -2.8L5.3 7.3L-5.3 7.3L-8.6 -2.8Z" stroke="#2083b1" fill="none" stroke-width="2"></path></g><g transform="translate(127 57)"><path d="M0 -10L9.5 -3.1L5.9 8.1L-5.9 8.1L-9.5 -3.1Z" stroke="#2083b1" fill="none" stroke-width="2"></path></g><g transform="translate(909 356)"><path d="M0 -8L7.6 -2.5L4.7 6.5L-4.7 6.5L-7.6 -2.5Z" stroke="#2083b1" fill="none" stroke-width="2"></path></g><g transform="translate(819 506)"><path d="M0 -5L4.8 -1.5L2.9 4L-2.9 4L-4.8 -1.5Z" stroke="#2083b1" fill="none" stroke-width="2"></path></g><g transform="translate(332 192)"><path d="M0 -4L3.8 -1.2L2.4 3.2L-2.4 3.2L-3.8 -1.2Z" stroke="#2083b1" fill="none" stroke-width="2"></path></g><g transform="translate(712 273)"><path d="M0 -10L9.5 -3.1L5.9 8.1L-5.9 8.1L-9.5 -3.1Z" stroke="#2083b1" fill="none" stroke-width="2"></path></g><g transform="translate(277 224)"><path d="M0 -9L8.6 -2.8L5.3 7.3L-5.3 7.3L-8.6 -2.8Z" stroke="#2083b1" fill="none" stroke-width="2"></path></g><g transform="translate(38 383)"><path d="M0 -11L10.5 -3.4L6.5 8.9L-6.5 8.9L-10.5 -3.4Z" stroke="#2083b1" fill="none" stroke-width="2"></path></g><g transform="translate(318 169)"><path d="M0 -3L2.9 -0.9L1.8 2.4L-1.8 2.4L-2.9 -0.9Z" stroke="#2083b1" fill="none" stroke-width="2"></path></g><g transform="translate(828 420)"><path d="M0 -3L2.9 -0.9L1.8 2.4L-1.8 2.4L-2.9 -0.9Z" stroke="#2083b1" fill="none" stroke-width="2"></path></g><g transform="translate(514 402)"><path d="M0 -11L10.5 -3.4L6.5 8.9L-6.5 8.9L-10.5 -3.4Z" stroke="#2083b1" fill="none" stroke-width="2"></path></g><g transform="translate(657 406)"><path d="M0 -3L2.9 -0.9L1.8 2.4L-1.8 2.4L-2.9 -0.9Z" stroke="#2083b1" fill="none" stroke-width="2"></path></g><g transform="translate(281 382)"><path d="M0 -8L7.6 -2.5L4.7 6.5L-4.7 6.5L-7.6 -2.5Z" stroke="#2083b1" fill="none" stroke-width="2"></path></g><g transform="translate(913 178)"><path d="M0 -3L2.9 -0.9L1.8 2.4L-1.8 2.4L-2.9 -0.9Z" stroke="#2083b1" fill="none" stroke-width="2"></path></g><g transform="translate(458 309)"><path d="M0 -1L1 -0.3L0.6 0.8L-0.6 0.8L-1 -0.3Z" stroke="#2083b1" fill="none" stroke-width="2"></path></g><g transform="translate(739 377)"><path d="M0 -7L6.7 -2.2L4.1 5.7L-4.1 5.7L-6.7 -2.2Z" stroke="#2083b1" fill="none" stroke-width="2"></path></g><g transform="translate(565 305)"><path d="M0 -1L1 -0.3L0.6 0.8L-0.6 0.8L-1 -0.3Z" stroke="#2083b1" fill="none" stroke-width="2"></path></g><g transform="translate(20 307)"><path d="M0 -9L8.6 -2.8L5.3 7.3L-5.3 7.3L-8.6 -2.8Z" stroke="#2083b1" fill="none" stroke-width="2"></path></g><g transform="translate(802 129)"><path d="M0 -10L9.5 -3.1L5.9 8.1L-5.9 8.1L-9.5 -3.1Z" stroke="#2083b1" fill="none" stroke-width="2"></path></g><g transform="translate(272 461)"><path d="M0 -8L7.6 -2.5L4.7 6.5L-4.7 6.5L-7.6 -2.5Z" stroke="#2083b1" fill="none" stroke-width="2"></path></g><g transform="translate(875 67)"><path d="M0 -2L1.9 -0.6L1.2 1.6L-1.2 1.6L-1.9 -0.6Z" stroke="#2083b1" fill="none" stroke-width="2"></path></g><g transform="translate(506 80)"><path d="M0 -9L8.6 -2.8L5.3 7.3L-5.3 7.3L-8.6 -2.8Z" stroke="#2083b1" fill="none" stroke-width="2"></path></g><g transform="translate(447 420)"><path d="M0 -1L1 -0.3L0.6 0.8L-0.6 0.8L-1 -0.3Z" stroke="#2083b1" fill="none" stroke-width="2"></path></g><g transform="translate(314 24)"><path d="M0 -6L5.7 -1.9L3.5 4.9L-3.5 4.9L-5.7 -1.9Z" stroke="#2083b1" fill="none" stroke-width="2"></path></g><g transform="translate(739 453)"><path d="M0 -4L3.8 -1.2L2.4 3.2L-2.4 3.2L-3.8 -1.2Z" stroke="#2083b1" fill="none" stroke-width="2"></path></g><g transform="translate(942 95)"><path d="M0 -5L4.8 -1.5L2.9 4L-2.9 4L-4.8 -1.5Z" stroke="#2083b1" fill="none" stroke-width="2"></path></g><g transform="translate(302 262)"><path d="M0 -4L3.8 -1.2L2.4 3.2L-2.4 3.2L-3.8 -1.2Z" stroke="#2083b1" fill="none" stroke-width="2"></path></g><g transform="translate(313 131)"><path d="M0 -6L5.7 -1.9L3.5 4.9L-3.5 4.9L-5.7 -1.9Z" stroke="#2083b1" fill="none" stroke-width="2"></path></g><g transform="translate(28 40)"><path d="M0 -9L8.6 -2.8L5.3 7.3L-5.3 7.3L-8.6 -2.8Z" stroke="#2083b1" fill="none" stroke-width="2"></path></g><g transform="translate(38 159)"><path d="M0 -1L1 -0.3L0.6 0.8L-0.6 0.8L-1 -0.3Z" stroke="#2083b1" fill="none" stroke-width="2"></path></g><g transform="translate(659 515)"><path d="M0 -2L1.9 -0.6L1.2 1.6L-1.2 1.6L-1.9 -0.6Z" stroke="#2083b1" fill="none" stroke-width="2"></path></g><g transform="translate(364 362)"><path d="M0 -10L9.5 -3.1L5.9 8.1L-5.9 8.1L-9.5 -3.1Z" stroke="#2083b1" fill="none" stroke-width="2"></path></g><g transform="translate(474 71)"><path d="M0 -1L1 -0.3L0.6 0.8L-0.6 0.8L-1 -0.3Z" stroke="#2083b1" fill="none" stroke-width="2"></path></g><g transform="translate(437 325)"><path d="M0 -1L1 -0.3L0.6 0.8L-0.6 0.8L-1 -0.3Z" stroke="#2083b1" fill="none" stroke-width="2"></path></g><g transform="translate(645 67)"><path d="M0 -11L10.5 -3.4L6.5 8.9L-6.5 8.9L-10.5 -3.4Z" stroke="#2083b1" fill="none" stroke-width="2"></path></g><g transform="translate(832 119)"><path d="M0 -8L7.6 -2.5L4.7 6.5L-4.7 6.5L-7.6 -2.5Z" stroke="#2083b1" fill="none" stroke-width="2"></path></g><g transform="translate(191 373)"><path d="M0 -5L4.8 -1.5L2.9 4L-2.9 4L-4.8 -1.5Z" stroke="#2083b1" fill="none" stroke-width="2"></path></g><g transform="translate(564 511)"><path d="M0 -9L8.6 -2.8L5.3 7.3L-5.3 7.3L-8.6 -2.8Z" stroke="#2083b1" fill="none" stroke-width="2"></path></g><g transform="translate(897 47)"><path d="M0 -8L7.6 -2.5L4.7 6.5L-4.7 6.5L-7.6 -2.5Z" stroke="#2083b1" fill="none" stroke-width="2"></path></g><g transform="translate(157 488)"><path d="M0 -11L10.5 -3.4L6.5 8.9L-6.5 8.9L-10.5 -3.4Z" stroke="#2083b1" fill="none" stroke-width="2"></path></g><g transform="translate(278 103)"><path d="M0 -5L4.8 -1.5L2.9 4L-2.9 4L-4.8 -1.5Z" stroke="#2083b1" fill="none" stroke-width="2"></path></g><g transform="translate(512 443)"><path d="M0 -2L1.9 -0.6L1.2 1.6L-1.2 1.6L-1.9 -0.6Z" stroke="#2083b1" fill="none" stroke-width="2"></path></g><g transform="translate(263 410)"><path d="M0 -1L1 -0.3L0.6 0.8L-0.6 0.8L-1 -0.3Z" stroke="#2083b1" fill="none" stroke-width="2"></path></g><g transform="translate(544 379)"><path d="M0 -7L6.7 -2.2L4.1 5.7L-4.1 5.7L-6.7 -2.2Z" stroke="#2083b1" fill="none" stroke-width="2"></path></g><g transform="translate(94 157)"><path d="M0 -6L5.7 -1.9L3.5 4.9L-3.5 4.9L-5.7 -1.9Z" stroke="#2083b1" fill="none" stroke-width="2"></path></g><g transform="translate(150 76)"><path d="M0 -10L9.5 -3.1L5.9 8.1L-5.9 8.1L-9.5 -3.1Z" stroke="#2083b1" fill="none" stroke-width="2"></path></g><g transform="translate(889 229)"><path d="M0 -2L1.9 -0.6L1.2 1.6L-1.2 1.6L-1.9 -0.6Z" stroke="#2083b1" fill="none" stroke-width="2"></path></g><g transform="translate(612 369)"><path d="M0 -4L3.8 -1.2L2.4 3.2L-2.4 3.2L-3.8 -1.2Z" stroke="#2083b1" fill="none" stroke-width="2"></path></g><g transform="translate(461 189)"><path d="M0 -6L5.7 -1.9L3.5 4.9L-3.5 4.9L-5.7 -1.9Z" stroke="#2083b1" fill="none" stroke-width="2"></path></g><g transform="translate(220 100)"><path d="M0 -8L7.6 -2.5L4.7 6.5L-4.7 6.5L-7.6 -2.5Z" stroke="#2083b1" fill="none" stroke-width="2"></path></g><g transform="translate(305 61)"><path d="M0 -9L8.6 -2.8L5.3 7.3L-5.3 7.3L-8.6 -2.8Z" stroke="#2083b1" fill="none" stroke-width="2"></path></g><g transform="translate(471 265)"><path d="M0 -8L7.6 -2.5L4.7 6.5L-4.7 6.5L-7.6 -2.5Z" stroke="#2083b1" fill="none" stroke-width="2"></path></g><g transform="translate(478 415)"><path d="M0 -3L2.9 -0.9L1.8 2.4L-1.8 2.4L-2.9 -0.9Z" stroke="#2083b1" fill="none" stroke-width="2"></path></g><g transform="translate(896 87)"><path d="M0 -5L4.8 -1.5L2.9 4L-2.9 4L-4.8 -1.5Z" stroke="#2083b1" fill="none" stroke-width="2"></path></g><g transform="translate(544 341)"><path d="M0 -2L1.9 -0.6L1.2 1.6L-1.2 1.6L-1.9 -0.6Z" stroke="#2083b1" fill="none" stroke-width="2"></path></g><g transform="translate(104 430)"><path d="M0 -8L7.6 -2.5L4.7 6.5L-4.7 6.5L-7.6 -2.5Z" stroke="#2083b1" fill="none" stroke-width="2"></path></g><g transform="translate(217 437)"><path d="M0 -9L8.6 -2.8L5.3 7.3L-5.3 7.3L-8.6 -2.8Z" stroke="#2083b1" fill="none" stroke-width="2"></path></g><g transform="translate(68 373)"><path d="M0 -9L8.6 -2.8L5.3 7.3L-5.3 7.3L-8.6 -2.8Z" stroke="#2083b1" fill="none" stroke-width="2"></path></g><g transform="translate(281 179)"><path d="M0 -6L5.7 -1.9L3.5 4.9L-3.5 4.9L-5.7 -1.9Z" stroke="#2083b1" fill="none" stroke-width="2"></path></g><g transform="translate(346 418)"><path d="M0 -3L2.9 -0.9L1.8 2.4L-1.8 2.4L-2.9 -0.9Z" stroke="#2083b1" fill="none" stroke-width="2"></path></g><g transform="translate(237 73)"><path d="M0 -11L10.5 -3.4L6.5 8.9L-6.5 8.9L-10.5 -3.4Z" stroke="#2083b1" fill="none" stroke-width="2"></path></g><g transform="translate(203 35)"><path d="M0 -9L8.6 -2.8L5.3 7.3L-5.3 7.3L-8.6 -2.8Z" stroke="#2083b1" fill="none" stroke-width="2"></path></g><g transform="translate(409 270)"><path d="M0 -6L5.7 -1.9L3.5 4.9L-3.5 4.9L-5.7 -1.9Z" stroke="#2083b1" fill="none" stroke-width="2"></path></g><g transform="translate(398 446)"><path d="M0 -11L10.5 -3.4L6.5 8.9L-6.5 8.9L-10.5 -3.4Z" stroke="#2083b1" fill="none" stroke-width="2"></path></g><g transform="translate(440 448)"><path d="M0 -4L3.8 -1.2L2.4 3.2L-2.4 3.2L-3.8 -1.2Z" stroke="#2083b1" fill="none" stroke-width="2"></path></g><g transform="translate(755 224)"><path d="M0 -7L6.7 -2.2L4.1 5.7L-4.1 5.7L-6.7 -2.2Z" stroke="#2083b1" fill="none" stroke-width="2"></path></g><g transform="translate(663 303)"><path d="M0 -9L8.6 -2.8L5.3 7.3L-5.3 7.3L-8.6 -2.8Z" stroke="#2083b1" fill="none" stroke-width="2"></path></g><g transform="translate(733 79)"><path d="M0 -10L9.5 -3.1L5.9 8.1L-5.9 8.1L-9.5 -3.1Z" stroke="#2083b1" fill="none" stroke-width="2"></path></g><g transform="translate(886 293)"><path d="M0 -4L3.8 -1.2L2.4 3.2L-2.4 3.2L-3.8 -1.2Z" stroke="#2083b1" fill="none" stroke-width="2"></path></g><g transform="translate(944 46)"><path d="M0 -2L1.9 -0.6L1.2 1.6L-1.2 1.6L-1.9 -0.6Z" stroke="#2083b1" fill="none" stroke-width="2"></path></g><g transform="translate(719 332)"><path d="M0 -4L3.8 -1.2L2.4 3.2L-2.4 3.2L-3.8 -1.2Z" stroke="#2083b1" fill="none" stroke-width="2"></path></g><g transform="translate(533 491)"><path d="M0 -10L9.5 -3.1L5.9 8.1L-5.9 8.1L-9.5 -3.1Z" stroke="#2083b1" fill="none" stroke-width="2"></path></g><g transform="translate(31 97)"><path d="M0 -11L10.5 -3.4L6.5 8.9L-6.5 8.9L-10.5 -3.4Z" stroke="#2083b1" fill="none" stroke-width="2"></path></g><g transform="translate(342 474)"><path d="M0 -7L6.7 -2.2L4.1 5.7L-4.1 5.7L-6.7 -2.2Z" stroke="#2083b1" fill="none" stroke-width="2"></path></g><g transform="translate(176 153)"><path d="M0 -9L8.6 -2.8L5.3 7.3L-5.3 7.3L-8.6 -2.8Z" stroke="#2083b1" fill="none" stroke-width="2"></path></g><g transform="translate(465 103)"><path d="M0 -1L1 -0.3L0.6 0.8L-0.6 0.8L-1 -0.3Z" stroke="#2083b1" fill="none" stroke-width="2"></path></g><g transform="translate(797 429)"><path d="M0 -4L3.8 -1.2L2.4 3.2L-2.4 3.2L-3.8 -1.2Z" stroke="#2083b1" fill="none" stroke-width="2"></path></g><g transform="translate(844 397)"><path d="M0 -3L2.9 -0.9L1.8 2.4L-1.8 2.4L-2.9 -0.9Z" stroke="#2083b1" fill="none" stroke-width="2"></path></g><g transform="translate(232 415)"><path d="M0 -10L9.5 -3.1L5.9 8.1L-5.9 8.1L-9.5 -3.1Z" stroke="#2083b1" fill="none" stroke-width="2"></path></g><g transform="translate(381 152)"><path d="M0 -8L7.6 -2.5L4.7 6.5L-4.7 6.5L-7.6 -2.5Z" stroke="#2083b1" fill="none" stroke-width="2"></path></g><g transform="translate(45 514)"><path d="M0 -10L9.5 -3.1L5.9 8.1L-5.9 8.1L-9.5 -3.1Z" stroke="#2083b1" fill="none" stroke-width="2"></path></g><g transform="translate(897 512)"><path d="M0 -11L10.5 -3.4L6.5 8.9L-6.5 8.9L-10.5 -3.4Z" stroke="#2083b1" fill="none" stroke-width="2"></path></g><g transform="translate(924 383)"><path d="M0 -7L6.7 -2.2L4.1 5.7L-4.1 5.7L-6.7 -2.2Z" stroke="#2083b1" fill="none" stroke-width="2"></path></g><g transform="translate(401 62)"><path d="M0 -4L3.8 -1.2L2.4 3.2L-2.4 3.2L-3.8 -1.2Z" stroke="#2083b1" fill="none" stroke-width="2"></path></g><g transform="translate(500 334)"><path d="M0 -11L10.5 -3.4L6.5 8.9L-6.5 8.9L-10.5 -3.4Z" stroke="#2083b1" fill="none" stroke-width="2"></path></g><g transform="translate(147 356)"><path d="M0 -7L6.7 -2.2L4.1 5.7L-4.1 5.7L-6.7 -2.2Z" stroke="#2083b1" fill="none" stroke-width="2"></path></g><g transform="translate(66 404)"><path d="M0 -8L7.6 -2.5L4.7 6.5L-4.7 6.5L-7.6 -2.5Z" stroke="#2083b1" fill="none" stroke-width="2"></path></g><g transform="translate(818 74)"><path d="M0 -10L9.5 -3.1L5.9 8.1L-5.9 8.1L-9.5 -3.1Z" stroke="#2083b1" fill="none" stroke-width="2"></path></g><g transform="translate(923 432)"><path d="M0 -8L7.6 -2.5L4.7 6.5L-4.7 6.5L-7.6 -2.5Z" stroke="#2083b1" fill="none" stroke-width="2"></path></g><g transform="translate(440 253)"><path d="M0 -2L1.9 -0.6L1.2 1.6L-1.2 1.6L-1.9 -0.6Z" stroke="#2083b1" fill="none" stroke-width="2"></path></g><g transform="translate(563 193)"><path d="M0 -6L5.7 -1.9L3.5 4.9L-3.5 4.9L-5.7 -1.9Z" stroke="#2083b1" fill="none" stroke-width="2"></path></g><g transform="translate(17 410)"><path d="M0 -6L5.7 -1.9L3.5 4.9L-3.5 4.9L-5.7 -1.9Z" stroke="#2083b1" fill="none" stroke-width="2"></path></g><g transform="translate(228 375)"><path d="M0 -1L1 -0.3L0.6 0.8L-0.6 0.8L-1 -0.3Z" stroke="#2083b1" fill="none" stroke-width="2"></path></g><g transform="translate(695 105)"><path d="M0 -10L9.5 -3.1L5.9 8.1L-5.9 8.1L-9.5 -3.1Z" stroke="#2083b1" fill="none" stroke-width="2"></path></g><g transform="translate(276 72)"><path d="M0 -3L2.9 -0.9L1.8 2.4L-1.8 2.4L-2.9 -0.9Z" stroke="#2083b1" fill="none" stroke-width="2"></path></g><g transform="translate(242 471)"><path d="M0 -2L1.9 -0.6L1.2 1.6L-1.2 1.6L-1.9 -0.6Z" stroke="#2083b1" fill="none" stroke-width="2"></path></g><g transform="translate(81 475)"><path d="M0 -3L2.9 -0.9L1.8 2.4L-1.8 2.4L-2.9 -0.9Z" stroke="#2083b1" fill="none" stroke-width="2"></path></g><g transform="translate(63 320)"><path d="M0 -4L3.8 -1.2L2.4 3.2L-2.4 3.2L-3.8 -1.2Z" stroke="#2083b1" fill="none" stroke-width="2"></path></g><g transform="translate(486 296)"><path d="M0 -8L7.6 -2.5L4.7 6.5L-4.7 6.5L-7.6 -2.5Z" stroke="#2083b1" fill="none" stroke-width="2"></path></g><g transform="translate(416 25)"><path d="M0 -4L3.8 -1.2L2.4 3.2L-2.4 3.2L-3.8 -1.2Z" stroke="#2083b1" fill="none" stroke-width="2"></path></g><g transform="translate(401 102)"><path d="M0 -7L6.7 -2.2L4.1 5.7L-4.1 5.7L-6.7 -2.2Z" stroke="#2083b1" fill="none" stroke-width="2"></path></g><g transform="translate(297 526)"><path d="M0 -6L5.7 -1.9L3.5 4.9L-3.5 4.9L-5.7 -1.9Z" stroke="#2083b1" fill="none" stroke-width="2"></path></g><g transform="translate(936 271)"><path d="M0 -5L4.8 -1.5L2.9 4L-2.9 4L-4.8 -1.5Z" stroke="#2083b1" fill="none" stroke-width="2"></path></g><g transform="translate(699 220)"><path d="M0 -1L1 -0.3L0.6 0.8L-0.6 0.8L-1 -0.3Z" stroke="#2083b1" fill="none" stroke-width="2"></path></g><g transform="translate(844 87)"><path d="M0 -11L10.5 -3.4L6.5 8.9L-6.5 8.9L-10.5 -3.4Z" stroke="#2083b1" fill="none" stroke-width="2"></path></g><g transform="translate(778 321)"><path d="M0 -1L1 -0.3L0.6 0.8L-0.6 0.8L-1 -0.3Z" stroke="#2083b1" fill="none" stroke-width="2"></path></g><g transform="translate(233 17)"><path d="M0 -5L4.8 -1.5L2.9 4L-2.9 4L-4.8 -1.5Z" stroke="#2083b1" fill="none" stroke-width="2"></path></g><g transform="translate(860 431)"><path d="M0 -2L1.9 -0.6L1.2 1.6L-1.2 1.6L-1.9 -0.6Z" stroke="#2083b1" fill="none" stroke-width="2"></path></g><g transform="translate(326 321)"><path d="M0 -3L2.9 -0.9L1.8 2.4L-1.8 2.4L-2.9 -0.9Z" stroke="#2083b1" fill="none" stroke-width="2"></path></g><g transform="translate(98 80)"><path d="M0 -4L3.8 -1.2L2.4 3.2L-2.4 3.2L-3.8 -1.2Z" stroke="#2083b1" fill="none" stroke-width="2"></path></g><g transform="translate(512 523)"><path d="M0 -9L8.6 -2.8L5.3 7.3L-5.3 7.3L-8.6 -2.8Z" stroke="#2083b1" fill="none" stroke-width="2"></path></g><g transform="translate(647 131)"><path d="M0 -9L8.6 -2.8L5.3 7.3L-5.3 7.3L-8.6 -2.8Z" stroke="#2083b1" fill="none" stroke-width="2"></path></g><g transform="translate(307 206)"><path d="M0 -4L3.8 -1.2L2.4 3.2L-2.4 3.2L-3.8 -1.2Z" stroke="#2083b1" fill="none" stroke-width="2"></path></g><g transform="translate(341 289)"><path d="M0 -11L10.5 -3.4L6.5 8.9L-6.5 8.9L-10.5 -3.4Z" stroke="#2083b1" fill="none" stroke-width="2"></path></g><g transform="translate(575 479)"><path d="M0 -1L1 -0.3L0.6 0.8L-0.6 0.8L-1 -0.3Z" stroke="#2083b1" fill="none" stroke-width="2"></path></g><g transform="translate(700 62)"><path d="M0 -10L9.5 -3.1L5.9 8.1L-5.9 8.1L-9.5 -3.1Z" stroke="#2083b1" fill="none" stroke-width="2"></path></g><g transform="translate(894 380)"><path d="M0 -7L6.7 -2.2L4.1 5.7L-4.1 5.7L-6.7 -2.2Z" stroke="#2083b1" fill="none" stroke-width="2"></path></g><g transform="translate(445 487)"><path d="M0 -6L5.7 -1.9L3.5 4.9L-3.5 4.9L-5.7 -1.9Z" stroke="#2083b1" fill="none" stroke-width="2"></path></g><g transform="translate(286 433)"><path d="M0 -6L5.7 -1.9L3.5 4.9L-3.5 4.9L-5.7 -1.9Z" stroke="#2083b1" fill="none" stroke-width="2"></path></g><g transform="translate(493 240)"><path d="M0 -4L3.8 -1.2L2.4 3.2L-2.4 3.2L-3.8 -1.2Z" stroke="#2083b1" fill="none" stroke-width="2"></path></g><g transform="translate(231 282)"><path d="M0 -5L4.8 -1.5L2.9 4L-2.9 4L-4.8 -1.5Z" stroke="#2083b1" fill="none" stroke-width="2"></path></g><g transform="translate(155 230)"><path d="M0 -2L1.9 -0.6L1.2 1.6L-1.2 1.6L-1.9 -0.6Z" stroke="#2083b1" fill="none" stroke-width="2"></path></g><g transform="translate(936 241)"><path d="M0 -6L5.7 -1.9L3.5 4.9L-3.5 4.9L-5.7 -1.9Z" stroke="#2083b1" fill="none" stroke-width="2"></path></g><g transform="translate(381 125)"><path d="M0 -4L3.8 -1.2L2.4 3.2L-2.4 3.2L-3.8 -1.2Z" stroke="#2083b1" fill="none" stroke-width="2"></path></g><g transform="translate(271 36)"><path d="M0 -11L10.5 -3.4L6.5 8.9L-6.5 8.9L-10.5 -3.4Z" stroke="#2083b1" fill="none" stroke-width="2"></path></g><g transform="translate(704 455)"><path d="M0 -7L6.7 -2.2L4.1 5.7L-4.1 5.7L-6.7 -2.2Z" stroke="#2083b1" fill="none" stroke-width="2"></path></g><g transform="translate(158 399)"><path d="M0 -9L8.6 -2.8L5.3 7.3L-5.3 7.3L-8.6 -2.8Z" stroke="#2083b1" fill="none" stroke-width="2"></path></g><g transform="translate(416 381)"><path d="M0 -6L5.7 -1.9L3.5 4.9L-3.5 4.9L-5.7 -1.9Z" stroke="#2083b1" fill="none" stroke-width="2"></path></g><g transform="translate(917 313)"><path d="M0 -10L9.5 -3.1L5.9 8.1L-5.9 8.1L-9.5 -3.1Z" stroke="#2083b1" fill="none" stroke-width="2"></path></g><g transform="translate(39 354)"><path d="M0 -7L6.7 -2.2L4.1 5.7L-4.1 5.7L-6.7 -2.2Z" stroke="#2083b1" fill="none" stroke-width="2"></path></g><g transform="translate(366 256)"><path d="M0 -11L10.5 -3.4L6.5 8.9L-6.5 8.9L-10.5 -3.4Z" stroke="#2083b1" fill="none" stroke-width="2"></path></g><g transform="translate(605 476)"><path d="M0 -4L3.8 -1.2L2.4 3.2L-2.4 3.2L-3.8 -1.2Z" stroke="#2083b1" fill="none" stroke-width="2"></path></g><g transform="translate(768 467)"><path d="M0 -6L5.7 -1.9L3.5 4.9L-3.5 4.9L-5.7 -1.9Z" stroke="#2083b1" fill="none" stroke-width="2"></path></g><g transform="translate(612 293)"><path d="M0 -6L5.7 -1.9L3.5 4.9L-3.5 4.9L-5.7 -1.9Z" stroke="#2083b1" fill="none" stroke-width="2"></path></g><g transform="translate(421 518)"><path d="M0 -5L4.8 -1.5L2.9 4L-2.9 4L-4.8 -1.5Z" stroke="#2083b1" fill="none" stroke-width="2"></path></g><g transform="translate(322 505)"><path d="M0 -4L3.8 -1.2L2.4 3.2L-2.4 3.2L-3.8 -1.2Z" stroke="#2083b1" fill="none" stroke-width="2"></path></g><g transform="translate(700 165)"><path d="M0 -1L1 -0.3L0.6 0.8L-0.6 0.8L-1 -0.3Z" stroke="#2083b1" fill="none" stroke-width="2"></path></g><g transform="translate(557 236)"><path d="M0 -8L7.6 -2.5L4.7 6.5L-4.7 6.5L-7.6 -2.5Z" stroke="#2083b1" fill="none" stroke-width="2"></path></g><g transform="translate(67 246)"><path d="M0 -5L4.8 -1.5L2.9 4L-2.9 4L-4.8 -1.5Z" stroke="#2083b1" fill="none" stroke-width="2"></path></g><g transform="translate(100 47)"><path d="M0 -2L1.9 -0.6L1.2 1.6L-1.2 1.6L-1.9 -0.6Z" stroke="#2083b1" fill="none" stroke-width="2"></path></g><g transform="translate(638 455)"><path d="M0 -4L3.8 -1.2L2.4 3.2L-2.4 3.2L-3.8 -1.2Z" stroke="#2083b1" fill="none" stroke-width="2"></path></g><g transform="translate(393 365)"><path d="M0 -5L4.8 -1.5L2.9 4L-2.9 4L-4.8 -1.5Z" stroke="#2083b1" fill="none" stroke-width="2"></path></g><g transform="translate(829 447)"><path d="M0 -3L2.9 -0.9L1.8 2.4L-1.8 2.4L-2.9 -0.9Z" stroke="#2083b1" fill="none" stroke-width="2"></path></g><g transform="translate(587 22)"><path d="M0 -11L10.5 -3.4L6.5 8.9L-6.5 8.9L-10.5 -3.4Z" stroke="#2083b1" fill="none" stroke-width="2"></path></g><g transform="translate(644 266)"><path d="M0 -9L8.6 -2.8L5.3 7.3L-5.3 7.3L-8.6 -2.8Z" stroke="#2083b1" fill="none" stroke-width="2"></path></g><g transform="translate(186 94)"><path d="M0 -6L5.7 -1.9L3.5 4.9L-3.5 4.9L-5.7 -1.9Z" stroke="#2083b1" fill="none" stroke-width="2"></path></g><g transform="translate(838 342)"><path d="M0 -11L10.5 -3.4L6.5 8.9L-6.5 8.9L-10.5 -3.4Z" stroke="#2083b1" fill="none" stroke-width="2"></path></g><g transform="translate(891 267)"><path d="M0 -9L8.6 -2.8L5.3 7.3L-5.3 7.3L-8.6 -2.8Z" stroke="#2083b1" fill="none" stroke-width="2"></path></g><g transform="translate(330 88)"><path d="M0 -8L7.6 -2.5L4.7 6.5L-4.7 6.5L-7.6 -2.5Z" stroke="#2083b1" fill="none" stroke-width="2"></path></g><g transform="translate(661 241)"><path d="M0 -4L3.8 -1.2L2.4 3.2L-2.4 3.2L-3.8 -1.2Z" stroke="#2083b1" fill="none" stroke-width="2"></path></g><g transform="translate(164 269)"><path d="M0 -6L5.7 -1.9L3.5 4.9L-3.5 4.9L-5.7 -1.9Z" stroke="#2083b1" fill="none" stroke-width="2"></path></g><g transform="translate(613 170)"><path d="M0 -10L9.5 -3.1L5.9 8.1L-5.9 8.1L-9.5 -3.1Z" stroke="#2083b1" fill="none" stroke-width="2"></path></g><g transform="translate(867 331)"><path d="M0 -6L5.7 -1.9L3.5 4.9L-3.5 4.9L-5.7 -1.9Z" stroke="#2083b1" fill="none" stroke-width="2"></path></g><g transform="translate(591 263)"><path d="M0 -9L8.6 -2.8L5.3 7.3L-5.3 7.3L-8.6 -2.8Z" stroke="#2083b1" fill="none" stroke-width="2"></path></g><g transform="translate(690 138)"><path d="M0 -9L8.6 -2.8L5.3 7.3L-5.3 7.3L-8.6 -2.8Z" stroke="#2083b1" fill="none" stroke-width="2"></path></g><g transform="translate(889 21)"><path d="M0 -8L7.6 -2.5L4.7 6.5L-4.7 6.5L-7.6 -2.5Z" stroke="#2083b1" fill="none" stroke-width="2"></path></g><g transform="translate(653 42)"><path d="M0 -8L7.6 -2.5L4.7 6.5L-4.7 6.5L-7.6 -2.5Z" stroke="#2083b1" fill="none" stroke-width="2"></path></g><g transform="translate(194 472)"><path d="M0 -3L2.9 -0.9L1.8 2.4L-1.8 2.4L-2.9 -0.9Z" stroke="#2083b1" fill="none" stroke-width="2"></path></g><g transform="translate(689 355)"><path d="M0 -3L2.9 -0.9L1.8 2.4L-1.8 2.4L-2.9 -0.9Z" stroke="#2083b1" fill="none" stroke-width="2"></path></g><g transform="translate(67 155)"><path d="M0 -9L8.6 -2.8L5.3 7.3L-5.3 7.3L-8.6 -2.8Z" stroke="#2083b1" fill="none" stroke-width="2"></path></g><g transform="translate(478 504)"><path d="M0 -7L6.7 -2.2L4.1 5.7L-4.1 5.7L-6.7 -2.2Z" stroke="#2083b1" fill="none" stroke-width="2"></path></g><g transform="translate(895 202)"><path d="M0 -2L1.9 -0.6L1.2 1.6L-1.2 1.6L-1.9 -0.6Z" stroke="#2083b1" fill="none" stroke-width="2"></path></g><g transform="translate(548 282)"><path d="M0 -5L4.8 -1.5L2.9 4L-2.9 4L-4.8 -1.5Z" stroke="#2083b1" fill="none" stroke-width="2"></path></g><g transform="translate(318 414)"><path d="M0 -10L9.5 -3.1L5.9 8.1L-5.9 8.1L-9.5 -3.1Z" stroke="#2083b1" fill="none" stroke-width="2"></path></g><g transform="translate(689 254)"><path d="M0 -11L10.5 -3.4L6.5 8.9L-6.5 8.9L-10.5 -3.4Z" stroke="#2083b1" fill="none" stroke-width="2"></path></g><g transform="translate(582 102)"><path d="M0 -9L8.6 -2.8L5.3 7.3L-5.3 7.3L-8.6 -2.8Z" stroke="#2083b1" fill="none" stroke-width="2"></path></g><g transform="translate(90 260)"><path d="M0 -8L7.6 -2.5L4.7 6.5L-4.7 6.5L-7.6 -2.5Z" stroke="#2083b1" fill="none" stroke-width="2"></path></g><g transform="translate(162 524)"><path d="M0 -11L10.5 -3.4L6.5 8.9L-6.5 8.9L-10.5 -3.4Z" stroke="#2083b1" fill="none" stroke-width="2"></path></g><g transform="translate(43 463)"><path d="M0 -7L6.7 -2.2L4.1 5.7L-4.1 5.7L-6.7 -2.2Z" stroke="#2083b1" fill="none" stroke-width="2"></path></g><g transform="translate(751 419)"><path d="M0 -5L4.8 -1.5L2.9 4L-2.9 4L-4.8 -1.5Z" stroke="#2083b1" fill="none" stroke-width="2"></path></g><g transform="translate(481 446)"><path d="M0 -3L2.9 -0.9L1.8 2.4L-1.8 2.4L-2.9 -0.9Z" stroke="#2083b1" fill="none" stroke-width="2"></path></g><g transform="translate(75 31)"><path d="M0 -2L1.9 -0.6L1.2 1.6L-1.2 1.6L-1.9 -0.6Z" stroke="#2083b1" fill="none" stroke-width="2"></path></g><g transform="translate(590 218)"><path d="M0 -11L10.5 -3.4L6.5 8.9L-6.5 8.9L-10.5 -3.4Z" stroke="#2083b1" fill="none" stroke-width="2"></path></g><g transform="translate(758 343)"><path d="M0 -6L5.7 -1.9L3.5 4.9L-3.5 4.9L-5.7 -1.9Z" stroke="#2083b1" fill="none" stroke-width="2"></path></g><g transform="translate(757 149)"><path d="M0 -5L4.8 -1.5L2.9 4L-2.9 4L-4.8 -1.5Z" stroke="#2083b1" fill="none" stroke-width="2"></path></g><g transform="translate(792 165)"><path d="M0 -7L6.7 -2.2L4.1 5.7L-4.1 5.7L-6.7 -2.2Z" stroke="#2083b1" fill="none" stroke-width="2"></path></g><g transform="translate(251 97)"><path d="M0 -11L10.5 -3.4L6.5 8.9L-6.5 8.9L-10.5 -3.4Z" stroke="#2083b1" fill="none" stroke-width="2"></path></g><g transform="translate(131 492)"><path d="M0 -6L5.7 -1.9L3.5 4.9L-3.5 4.9L-5.7 -1.9Z" stroke="#2083b1" fill="none" stroke-width="2"></path></g><g transform="translate(825 283)"><path d="M0 -9L8.6 -2.8L5.3 7.3L-5.3 7.3L-8.6 -2.8Z" stroke="#2083b1" fill="none" stroke-width="2"></path></g><g transform="translate(440 130)"><path d="M0 -1L1 -0.3L0.6 0.8L-0.6 0.8L-1 -0.3Z" stroke="#2083b1" fill="none" stroke-width="2"></path></g><g transform="translate(474 15)"><path d="M0 -2L1.9 -0.6L1.2 1.6L-1.2 1.6L-1.9 -0.6Z" stroke="#2083b1" fill="none" stroke-width="2"></path></g><g transform="translate(788 270)"><path d="M0 -8L7.6 -2.5L4.7 6.5L-4.7 6.5L-7.6 -2.5Z" stroke="#2083b1" fill="none" stroke-width="2"></path></g><g transform="translate(770 294)"><path d="M0 -10L9.5 -3.1L5.9 8.1L-5.9 8.1L-9.5 -3.1Z" stroke="#2083b1" fill="none" stroke-width="2"></path></g><g transform="translate(296 357)"><path d="M0 -5L4.8 -1.5L2.9 4L-2.9 4L-4.8 -1.5Z" stroke="#2083b1" fill="none" stroke-width="2"></path></g><g transform="translate(157 51)"><path d="M0 -9L8.6 -2.8L5.3 7.3L-5.3 7.3L-8.6 -2.8Z" stroke="#2083b1" fill="none" stroke-width="2"></path></g><g transform="translate(691 388)"><path d="M0 -3L2.9 -0.9L1.8 2.4L-1.8 2.4L-2.9 -0.9Z" stroke="#2083b1" fill="none" stroke-width="2"></path></g><g transform="translate(877 490)"><path d="M0 -1L1 -0.3L0.6 0.8L-0.6 0.8L-1 -0.3Z" stroke="#2083b1" fill="none" stroke-width="2"></path></g><g transform="translate(311 289)"><path d="M0 -2L1.9 -0.6L1.2 1.6L-1.2 1.6L-1.9 -0.6Z" stroke="#2083b1" fill="none" stroke-width="2"></path></g><g transform="translate(718 195)"><path d="M0 -1L1 -0.3L0.6 0.8L-0.6 0.8L-1 -0.3Z" stroke="#2083b1" fill="none" stroke-width="2"></path></g><g transform="translate(316 472)"><path d="M0 -6L5.7 -1.9L3.5 4.9L-3.5 4.9L-5.7 -1.9Z" stroke="#2083b1" fill="none" stroke-width="2"></path></g><g transform="translate(19 15)"><path d="M0 -5L4.8 -1.5L2.9 4L-2.9 4L-4.8 -1.5Z" stroke="#2083b1" fill="none" stroke-width="2"></path></g><g transform="translate(688 476)"><path d="M0 -3L2.9 -0.9L1.8 2.4L-1.8 2.4L-2.9 -0.9Z" stroke="#2083b1" fill="none" stroke-width="2"></path></g><g transform="translate(726 413)"><path d="M0 -3L2.9 -0.9L1.8 2.4L-1.8 2.4L-2.9 -0.9Z" stroke="#2083b1" fill="none" stroke-width="2"></path></g><g transform="translate(591 503)"><path d="M0 -2L1.9 -0.6L1.2 1.6L-1.2 1.6L-1.9 -0.6Z" stroke="#2083b1" fill="none" stroke-width="2"></path></g><g transform="translate(381 26)"><path d="M0 -1L1 -0.3L0.6 0.8L-0.6 0.8L-1 -0.3Z" stroke="#2083b1" fill="none" stroke-width="2"></path></g><g transform="translate(940 406)"><path d="M0 -3L2.9 -0.9L1.8 2.4L-1.8 2.4L-2.9 -0.9Z" stroke="#2083b1" fill="none" stroke-width="2"></path></g><g transform="translate(474 371)"><path d="M0 -9L8.6 -2.8L5.3 7.3L-5.3 7.3L-8.6 -2.8Z" stroke="#2083b1" fill="none" stroke-width="2"></path></g><g transform="translate(487 132)"><path d="M0 -4L3.8 -1.2L2.4 3.2L-2.4 3.2L-3.8 -1.2Z" stroke="#2083b1" fill="none" stroke-width="2"></path></g><g transform="translate(146 452)"><path d="M0 -11L10.5 -3.4L6.5 8.9L-6.5 8.9L-10.5 -3.4Z" stroke="#2083b1" fill="none" stroke-width="2"></path></g><g transform="translate(759 78)"><path d="M0 -4L3.8 -1.2L2.4 3.2L-2.4 3.2L-3.8 -1.2Z" stroke="#2083b1" fill="none" stroke-width="2"></path></g><g transform="translate(405 238)"><path d="M0 -9L8.6 -2.8L5.3 7.3L-5.3 7.3L-8.6 -2.8Z" stroke="#2083b1" fill="none" stroke-width="2"></path></g><g transform="translate(412 346)"><path d="M0 -7L6.7 -2.2L4.1 5.7L-4.1 5.7L-6.7 -2.2Z" stroke="#2083b1" fill="none" stroke-width="2"></path></g><g transform="translate(75 191)"><path d="M0 -4L3.8 -1.2L2.4 3.2L-2.4 3.2L-3.8 -1.2Z" stroke="#2083b1" fill="none" stroke-width="2"></path></g><g transform="translate(857 304)"><path d="M0 -8L7.6 -2.5L4.7 6.5L-4.7 6.5L-7.6 -2.5Z" stroke="#2083b1" fill="none" stroke-width="2"></path></g><g transform="translate(243 43)"><path d="M0 -6L5.7 -1.9L3.5 4.9L-3.5 4.9L-5.7 -1.9Z" stroke="#2083b1" fill="none" stroke-width="2"></path></g><g transform="translate(759 18)"><path d="M0 -3L2.9 -0.9L1.8 2.4L-1.8 2.4L-2.9 -0.9Z" stroke="#2083b1" fill="none" stroke-width="2"></path></g><g transform="translate(533 162)"><path d="M0 -5L4.8 -1.5L2.9 4L-2.9 4L-4.8 -1.5Z" stroke="#2083b1" fill="none" stroke-width="2"></path></g><g transform="translate(859 362)"><path d="M0 -6L5.7 -1.9L3.5 4.9L-3.5 4.9L-5.7 -1.9Z" stroke="#2083b1" fill="none" stroke-width="2"></path></g><g transform="translate(838 182)"><path d="M0 -9L8.6 -2.8L5.3 7.3L-5.3 7.3L-8.6 -2.8Z" stroke="#2083b1" fill="none" stroke-width="2"></path></g><g transform="translate(855 224)"><path d="M0 -3L2.9 -0.9L1.8 2.4L-1.8 2.4L-2.9 -0.9Z" stroke="#2083b1" fill="none" stroke-width="2"></path></g><g transform="translate(839 147)"><path d="M0 -10L9.5 -3.1L5.9 8.1L-5.9 8.1L-9.5 -3.1Z" stroke="#2083b1" fill="none" stroke-width="2"></path></g><g transform="translate(702 525)"><path d="M0 -6L5.7 -1.9L3.5 4.9L-3.5 4.9L-5.7 -1.9Z" stroke="#2083b1" fill="none" stroke-width="2"></path></g><g transform="translate(944 363)"><path d="M0 -3L2.9 -0.9L1.8 2.4L-1.8 2.4L-2.9 -0.9Z" stroke="#2083b1" fill="none" stroke-width="2"></path></g><g transform="translate(343 389)"><path d="M0 -10L9.5 -3.1L5.9 8.1L-5.9 8.1L-9.5 -3.1Z" stroke="#2083b1" fill="none" stroke-width="2"></path></g><g transform="translate(369 400)"><path d="M0 -10L9.5 -3.1L5.9 8.1L-5.9 8.1L-9.5 -3.1Z" stroke="#2083b1" fill="none" stroke-width="2"></path></g><g transform="translate(795 483)"><path d="M0 -4L3.8 -1.2L2.4 3.2L-2.4 3.2L-3.8 -1.2Z" stroke="#2083b1" fill="none" stroke-width="2"></path></g><g transform="translate(539 82)"><path d="M0 -6L5.7 -1.9L3.5 4.9L-3.5 4.9L-5.7 -1.9Z" stroke="#2083b1" fill="none" stroke-width="2"></path></g><g transform="translate(776 113)"><path d="M0 -9L8.6 -2.8L5.3 7.3L-5.3 7.3L-8.6 -2.8Z" stroke="#2083b1" fill="none" stroke-width="2"></path></g><g transform="translate(353 133)"><path d="M0 -2L1.9 -0.6L1.2 1.6L-1.2 1.6L-1.9 -0.6Z" stroke="#2083b1" fill="none" stroke-width="2"></path></g><g transform="translate(827 243)"><path d="M0 -4L3.8 -1.2L2.4 3.2L-2.4 3.2L-3.8 -1.2Z" stroke="#2083b1" fill="none" stroke-width="2"></path></g><g transform="translate(162 128)"><path d="M0 -6L5.7 -1.9L3.5 4.9L-3.5 4.9L-5.7 -1.9Z" stroke="#2083b1" fill="none" stroke-width="2"></path></g><g transform="translate(576 400)"><path d="M0 -8L7.6 -2.5L4.7 6.5L-4.7 6.5L-7.6 -2.5Z" stroke="#2083b1" fill="none" stroke-width="2"></path></g><g transform="translate(781 518)"><path d="M0 -7L6.7 -2.2L4.1 5.7L-4.1 5.7L-6.7 -2.2Z" stroke="#2083b1" fill="none" stroke-width="2"></path></g><g transform="translate(775 57)"><path d="M0 -10L9.5 -3.1L5.9 8.1L-5.9 8.1L-9.5 -3.1Z" stroke="#2083b1" fill="none" stroke-width="2"></path></g><g transform="translate(359 186)"><path d="M0 -1L1 -0.3L0.6 0.8L-0.6 0.8L-1 -0.3Z" stroke="#2083b1" fill="none" stroke-width="2"></path></g><g transform="translate(501 483)"><path d="M0 -3L2.9 -0.9L1.8 2.4L-1.8 2.4L-2.9 -0.9Z" stroke="#2083b1" fill="none" stroke-width="2"></path></g><g transform="translate(555 25)"><path d="M0 -1L1 -0.3L0.6 0.8L-0.6 0.8L-1 -0.3Z" stroke="#2083b1" fill="none" stroke-width="2"></path></g><g transform="translate(589 432)"><path d="M0 -8L7.6 -2.5L4.7 6.5L-4.7 6.5L-7.6 -2.5Z" stroke="#2083b1" fill="none" stroke-width="2"></path></g><g transform="translate(643 93)"><path d="M0 -5L4.8 -1.5L2.9 4L-2.9 4L-4.8 -1.5Z" stroke="#2083b1" fill="none" stroke-width="2"></path></g><g transform="translate(913 284)"><path d="M0 -2L1.9 -0.6L1.2 1.6L-1.2 1.6L-1.9 -0.6Z" stroke="#2083b1" fill="none" stroke-width="2"></path></g><g transform="translate(698 30)"><path d="M0 -5L4.8 -1.5L2.9 4L-2.9 4L-4.8 -1.5Z" stroke="#2083b1" fill="none" stroke-width="2"></path></g><g transform="translate(14 64)"><path d="M0 -5L4.8 -1.5L2.9 4L-2.9 4L-4.8 -1.5Z" stroke="#2083b1" fill="none" stroke-width="2"></path></g><g transform="translate(906 452)"><path d="M0 -11L10.5 -3.4L6.5 8.9L-6.5 8.9L-10.5 -3.4Z" stroke="#2083b1" fill="none" stroke-width="2"></path></g><g transform="translate(504 371)"><path d="M0 -2L1.9 -0.6L1.2 1.6L-1.2 1.6L-1.9 -0.6Z" stroke="#2083b1" fill="none" stroke-width="2"></path></g><g transform="translate(20 334)"><path d="M0 -5L4.8 -1.5L2.9 4L-2.9 4L-4.8 -1.5Z" stroke="#2083b1" fill="none" stroke-width="2"></path></g><g transform="translate(288 149)"><path d="M0 -10L9.5 -3.1L5.9 8.1L-5.9 8.1L-9.5 -3.1Z" stroke="#2083b1" fill="none" stroke-width="2"></path></g><g transform="translate(527 41)"><path d="M0 -7L6.7 -2.2L4.1 5.7L-4.1 5.7L-6.7 -2.2Z" stroke="#2083b1" fill="none" stroke-width="2"></path></g><g transform="translate(866 39)"><path d="M0 -7L6.7 -2.2L4.1 5.7L-4.1 5.7L-6.7 -2.2Z" stroke="#2083b1" fill="none" stroke-width="2"></path></g><g transform="translate(207 169)"><path d="M0 -3L2.9 -0.9L1.8 2.4L-1.8 2.4L-2.9 -0.9Z" stroke="#2083b1" fill="none" stroke-width="2"></path></g><g transform="translate(180 350)"><path d="M0 -9L8.6 -2.8L5.3 7.3L-5.3 7.3L-8.6 -2.8Z" stroke="#2083b1" fill="none" stroke-width="2"></path></g><g transform="translate(146 172)"><path d="M0 -7L6.7 -2.2L4.1 5.7L-4.1 5.7L-6.7 -2.2Z" stroke="#2083b1" fill="none" stroke-width="2"></path></g><g transform="translate(615 239)"><path d="M0 -8L7.6 -2.5L4.7 6.5L-4.7 6.5L-7.6 -2.5Z" stroke="#2083b1" fill="none" stroke-width="2"></path></g><g transform="translate(352 338)"><path d="M0 -9L8.6 -2.8L5.3 7.3L-5.3 7.3L-8.6 -2.8Z" stroke="#2083b1" fill="none" stroke-width="2"></path></g><g transform="translate(802 36)"><path d="M0 -7L6.7 -2.2L4.1 5.7L-4.1 5.7L-6.7 -2.2Z" stroke="#2083b1" fill="none" stroke-width="2"></path></g><g transform="translate(316 376)"><path d="M0 -7L6.7 -2.2L4.1 5.7L-4.1 5.7L-6.7 -2.2Z" stroke="#2083b1" fill="none" stroke-width="2"></path></g><g transform="translate(542 209)"><path d="M0 -3L2.9 -0.9L1.8 2.4L-1.8 2.4L-2.9 -0.9Z" stroke="#2083b1" fill="none" stroke-width="2"></path></g><g transform="translate(537 132)"><path d="M0 -1L1 -0.3L0.6 0.8L-0.6 0.8L-1 -0.3Z" stroke="#2083b1" fill="none" stroke-width="2"></path></g><g transform="translate(613 16)"><path d="M0 -1L1 -0.3L0.6 0.8L-0.6 0.8L-1 -0.3Z" stroke="#2083b1" fill="none" stroke-width="2"></path></g><g transform="translate(473 330)"><path d="M0 -1L1 -0.3L0.6 0.8L-0.6 0.8L-1 -0.3Z" stroke="#2083b1" fill="none" stroke-width="2"></path></g><g transform="translate(424 186)"><path d="M0 -11L10.5 -3.4L6.5 8.9L-6.5 8.9L-10.5 -3.4Z" stroke="#2083b1" fill="none" stroke-width="2"></path></g><g transform="translate(189 128)"><path d="M0 -4L3.8 -1.2L2.4 3.2L-2.4 3.2L-3.8 -1.2Z" stroke="#2083b1" fill="none" stroke-width="2"></path></g><g transform="translate(168 194)"><path d="M0 -1L1 -0.3L0.6 0.8L-0.6 0.8L-1 -0.3Z" stroke="#2083b1" fill="none" stroke-width="2"></path></g><g transform="translate(255 165)"><path d="M0 -8L7.6 -2.5L4.7 6.5L-4.7 6.5L-7.6 -2.5Z" stroke="#2083b1" fill="none" stroke-width="2"></path></g><g transform="translate(425 82)"><path d="M0 -9L8.6 -2.8L5.3 7.3L-5.3 7.3L-8.6 -2.8Z" stroke="#2083b1" fill="none" stroke-width="2"></path></g><g transform="translate(131 423)"><path d="M0 -3L2.9 -0.9L1.8 2.4L-1.8 2.4L-2.9 -0.9Z" stroke="#2083b1" fill="none" stroke-width="2"></path></g><g transform="translate(931 129)"><path d="M0 -4L3.8 -1.2L2.4 3.2L-2.4 3.2L-3.8 -1.2Z" stroke="#2083b1" fill="none" stroke-width="2"></path></g><g transform="translate(941 303)"><path d="M0 -10L9.5 -3.1L5.9 8.1L-5.9 8.1L-9.5 -3.1Z" stroke="#2083b1" fill="none" stroke-width="2"></path></g><g transform="translate(296 329)"><path d="M0 -5L4.8 -1.5L2.9 4L-2.9 4L-4.8 -1.5Z" stroke="#2083b1" fill="none" stroke-width="2"></path></g><g transform="translate(508 156)"><path d="M0 -9L8.6 -2.8L5.3 7.3L-5.3 7.3L-8.6 -2.8Z" stroke="#2083b1" fill="none" stroke-width="2"></path></g><g transform="translate(676 187)"><path d="M0 -3L2.9 -0.9L1.8 2.4L-1.8 2.4L-2.9 -0.9Z" stroke="#2083b1" fill="none" stroke-width="2"></path></g><g transform="translate(236 256)"><path d="M0 -5L4.8 -1.5L2.9 4L-2.9 4L-4.8 -1.5Z" stroke="#2083b1" fill="none" stroke-width="2"></path></g><g transform="translate(325 442)"><path d="M0 -4L3.8 -1.2L2.4 3.2L-2.4 3.2L-3.8 -1.2Z" stroke="#2083b1" fill="none" stroke-width="2"></path></g><g transform="translate(775 383)"><path d="M0 -9L8.6 -2.8L5.3 7.3L-5.3 7.3L-8.6 -2.8Z" stroke="#2083b1" fill="none" stroke-width="2"></path></g><g transform="translate(888 144)"><path d="M0 -7L6.7 -2.2L4.1 5.7L-4.1 5.7L-6.7 -2.2Z" stroke="#2083b1" fill="none" stroke-width="2"></path></g><g transform="translate(291 498)"><path d="M0 -11L10.5 -3.4L6.5 8.9L-6.5 8.9L-10.5 -3.4Z" stroke="#2083b1" fill="none" stroke-width="2"></path></g><g transform="translate(938 333)"><path d="M0 -4L3.8 -1.2L2.4 3.2L-2.4 3.2L-3.8 -1.2Z" stroke="#2083b1" fill="none" stroke-width="2"></path></g><g transform="translate(672 445)"><path d="M0 -4L3.8 -1.2L2.4 3.2L-2.4 3.2L-3.8 -1.2Z" stroke="#2083b1" fill="none" stroke-width="2"></path></g><g transform="translate(136 31)"><path d="M0 -11L10.5 -3.4L6.5 8.9L-6.5 8.9L-10.5 -3.4Z" stroke="#2083b1" fill="none" stroke-width="2"></path></g><g transform="translate(741 106)"><path d="M0 -9L8.6 -2.8L5.3 7.3L-5.3 7.3L-8.6 -2.8Z" stroke="#2083b1" fill="none" stroke-width="2"></path></g><g transform="translate(50 427)"><path d="M0 -3L2.9 -0.9L1.8 2.4L-1.8 2.4L-2.9 -0.9Z" stroke="#2083b1" fill="none" stroke-width="2"></path></g><g transform="translate(157 427)"><path d="M0 -6L5.7 -1.9L3.5 4.9L-3.5 4.9L-5.7 -1.9Z" stroke="#2083b1" fill="none" stroke-width="2"></path></g><g transform="translate(380 474)"><path d="M0 -9L8.6 -2.8L5.3 7.3L-5.3 7.3L-8.6 -2.8Z" stroke="#2083b1" fill="none" stroke-width="2"></path></g><g transform="translate(195 520)"><path d="M0 -3L2.9 -0.9L1.8 2.4L-1.8 2.4L-2.9 -0.9Z" stroke="#2083b1" fill="none" stroke-width="2"></path></g><g transform="translate(759 187)"><path d="M0 -1L1 -0.3L0.6 0.8L-0.6 0.8L-1 -0.3Z" stroke="#2083b1" fill="none" stroke-width="2"></path></g><g transform="translate(541 521)"><path d="M0 -5L4.8 -1.5L2.9 4L-2.9 4L-4.8 -1.5Z" stroke="#2083b1" fill="none" stroke-width="2"></path></g><g transform="translate(595 192)"><path d="M0 -2L1.9 -0.6L1.2 1.6L-1.2 1.6L-1.9 -0.6Z" stroke="#2083b1" fill="none" stroke-width="2"></path></g><g transform="translate(237 226)"><path d="M0 -5L4.8 -1.5L2.9 4L-2.9 4L-4.8 -1.5Z" stroke="#2083b1" fill="none" stroke-width="2"></path></g><g transform="translate(820 319)"><path d="M0 -4L3.8 -1.2L2.4 3.2L-2.4 3.2L-3.8 -1.2Z" stroke="#2083b1" fill="none" stroke-width="2"></path></g><g transform="translate(483 168)"><path d="M0 -7L6.7 -2.2L4.1 5.7L-4.1 5.7L-6.7 -2.2Z" stroke="#2083b1" fill="none" stroke-width="2"></path></g><g transform="translate(191 288)"><path d="M0 -8L7.6 -2.5L4.7 6.5L-4.7 6.5L-7.6 -2.5Z" stroke="#2083b1" fill="none" stroke-width="2"></path></g><g transform="translate(184 228)"><path d="M0 -9L8.6 -2.8L5.3 7.3L-5.3 7.3L-8.6 -2.8Z" stroke="#2083b1" fill="none" stroke-width="2"></path></g><g transform="translate(869 95)"><path d="M0 -5L4.8 -1.5L2.9 4L-2.9 4L-4.8 -1.5Z" stroke="#2083b1" fill="none" stroke-width="2"></path></g><g transform="translate(254 202)"><path d="M0 -11L10.5 -3.4L6.5 8.9L-6.5 8.9L-10.5 -3.4Z" stroke="#2083b1" fill="none" stroke-width="2"></path></g><g transform="translate(304 104)"><path d="M0 -1L1 -0.3L0.6 0.8L-0.6 0.8L-1 -0.3Z" stroke="#2083b1" fill="none" stroke-width="2"></path></g><g transform="translate(641 14)"><path d="M0 -4L3.8 -1.2L2.4 3.2L-2.4 3.2L-3.8 -1.2Z" stroke="#2083b1" fill="none" stroke-width="2"></path></g><g transform="translate(530 15)"><path d="M0 -5L4.8 -1.5L2.9 4L-2.9 4L-4.8 -1.5Z" stroke="#2083b1" fill="none" stroke-width="2"></path></g><g transform="translate(572 374)"><path d="M0 -3L2.9 -0.9L1.8 2.4L-1.8 2.4L-2.9 -0.9Z" stroke="#2083b1" fill="none" stroke-width="2"></path></g><g transform="translate(75 291)"><path d="M0 -9L8.6 -2.8L5.3 7.3L-5.3 7.3L-8.6 -2.8Z" stroke="#2083b1" fill="none" stroke-width="2"></path></g><g transform="translate(456 217)"><path d="M0 -7L6.7 -2.2L4.1 5.7L-4.1 5.7L-6.7 -2.2Z" stroke="#2083b1" fill="none" stroke-width="2"></path></g><g transform="translate(13 454)"><path d="M0 -7L6.7 -2.2L4.1 5.7L-4.1 5.7L-6.7 -2.2Z" stroke="#2083b1" fill="none" stroke-width="2"></path></g><g transform="translate(442 24)"><path d="M0 -6L5.7 -1.9L3.5 4.9L-3.5 4.9L-5.7 -1.9Z" stroke="#2083b1" fill="none" stroke-width="2"></path></g><g transform="translate(206 351)"><path d="M0 -3L2.9 -0.9L1.8 2.4L-1.8 2.4L-2.9 -0.9Z" stroke="#2083b1" fill="none" stroke-width="2"></path></g><g transform="translate(636 384)"><path d="M0 -4L3.8 -1.2L2.4 3.2L-2.4 3.2L-3.8 -1.2Z" stroke="#2083b1" fill="none" stroke-width="2"></path></g><g transform="translate(228 328)"><path d="M0 -6L5.7 -1.9L3.5 4.9L-3.5 4.9L-5.7 -1.9Z" stroke="#2083b1" fill="none" stroke-width="2"></path></g><g transform="translate(819 475)"><path d="M0 -1L1 -0.3L0.6 0.8L-0.6 0.8L-1 -0.3Z" stroke="#2083b1" fill="none" stroke-width="2"></path></g><g transform="translate(73 520)"><path d="M0 -6L5.7 -1.9L3.5 4.9L-3.5 4.9L-5.7 -1.9Z" stroke="#2083b1" fill="none" stroke-width="2"></path></g><g transform="translate(56 93)"><path d="M0 -2L1.9 -0.6L1.2 1.6L-1.2 1.6L-1.9 -0.6Z" stroke="#2083b1" fill="none" stroke-width="2"></path></g><g transform="translate(382 280)"><path d="M0 -8L7.6 -2.5L4.7 6.5L-4.7 6.5L-7.6 -2.5Z" stroke="#2083b1" fill="none" stroke-width="2"></path></g><g transform="translate(442 350)"><path d="M0 -2L1.9 -0.6L1.2 1.6L-1.2 1.6L-1.9 -0.6Z" stroke="#2083b1" fill="none" stroke-width="2"></path></g><g transform="translate(752 44)"><path d="M0 -2L1.9 -0.6L1.2 1.6L-1.2 1.6L-1.9 -0.6Z" stroke="#2083b1" fill="none" stroke-width="2"></path></g><g transform="translate(247 443)"><path d="M0 -8L7.6 -2.5L4.7 6.5L-4.7 6.5L-7.6 -2.5Z" stroke="#2083b1" fill="none" stroke-width="2"></path></g><g transform="translate(477 473)"><path d="M0 -6L5.7 -1.9L3.5 4.9L-3.5 4.9L-5.7 -1.9Z" stroke="#2083b1" fill="none" stroke-width="2"></path></g><g transform="translate(411 299)"><path d="M0 -5L4.8 -1.5L2.9 4L-2.9 4L-4.8 -1.5Z" stroke="#2083b1" fill="none" stroke-width="2"></path></g><g transform="translate(845 59)"><path d="M0 -8L7.6 -2.5L4.7 6.5L-4.7 6.5L-7.6 -2.5Z" stroke="#2083b1" fill="none" stroke-width="2"></path></g><g transform="translate(743 482)"><path d="M0 -7L6.7 -2.2L4.1 5.7L-4.1 5.7L-6.7 -2.2Z" stroke="#2083b1" fill="none" stroke-width="2"></path></g><g transform="translate(801 377)"><path d="M0 -6L5.7 -1.9L3.5 4.9L-3.5 4.9L-5.7 -1.9Z" stroke="#2083b1" fill="none" stroke-width="2"></path></g><g transform="translate(346 160)"><path d="M0 -5L4.8 -1.5L2.9 4L-2.9 4L-4.8 -1.5Z" stroke="#2083b1" fill="none" stroke-width="2"></path></g><g transform="translate(615 88)"><path d="M0 -2L1.9 -0.6L1.2 1.6L-1.2 1.6L-1.9 -0.6Z" stroke="#2083b1" fill="none" stroke-width="2"></path></g><g transform="translate(851 464)"><path d="M0 -8L7.6 -2.5L4.7 6.5L-4.7 6.5L-7.6 -2.5Z" stroke="#2083b1" fill="none" stroke-width="2"></path></g><g transform="translate(811 184)"><path d="M0 -9L8.6 -2.8L5.3 7.3L-5.3 7.3L-8.6 -2.8Z" stroke="#2083b1" fill="none" stroke-width="2"></path></g><g transform="translate(859 523)"><path d="M0 -4L3.8 -1.2L2.4 3.2L-2.4 3.2L-3.8 -1.2Z" stroke="#2083b1" fill="none" stroke-width="2"></path></g><g transform="translate(862 199)"><path d="M0 -5L4.8 -1.5L2.9 4L-2.9 4L-4.8 -1.5Z" stroke="#2083b1" fill="none" stroke-width="2"></path></g><g transform="translate(569 127)"><path d="M0 -9L8.6 -2.8L5.3 7.3L-5.3 7.3L-8.6 -2.8Z" stroke="#2083b1" fill="none" stroke-width="2"></path></g><g transform="translate(764 255)"><path d="M0 -10L9.5 -3.1L5.9 8.1L-5.9 8.1L-9.5 -3.1Z" stroke="#2083b1" fill="none" stroke-width="2"></path></g><g transform="translate(131 247)"><path d="M0 -5L4.8 -1.5L2.9 4L-2.9 4L-4.8 -1.5Z" stroke="#2083b1" fill="none" stroke-width="2"></path></g><g transform="translate(19 279)"><path d="M0 -5L4.8 -1.5L2.9 4L-2.9 4L-4.8 -1.5Z" stroke="#2083b1" fill="none" stroke-width="2"></path></g><g transform="translate(602 319)"><path d="M0 -8L7.6 -2.5L4.7 6.5L-4.7 6.5L-7.6 -2.5Z" stroke="#2083b1" fill="none" stroke-width="2"></path></g><g transform="translate(254 374)"><path d="M0 -11L10.5 -3.4L6.5 8.9L-6.5 8.9L-10.5 -3.4Z" stroke="#2083b1" fill="none" stroke-width="2"></path></g><g transform="translate(121 358)"><path d="M0 -5L4.8 -1.5L2.9 4L-2.9 4L-4.8 -1.5Z" stroke="#2083b1" fill="none" stroke-width="2"></path></g><g transform="translate(712 372)"><path d="M0 -6L5.7 -1.9L3.5 4.9L-3.5 4.9L-5.7 -1.9Z" stroke="#2083b1" fill="none" stroke-width="2"></path></g><g transform="translate(614 142)"><path d="M0 -1L1 -0.3L0.6 0.8L-0.6 0.8L-1 -0.3Z" stroke="#2083b1" fill="none" stroke-width="2"></path></g><g transform="translate(635 423)"><path d="M0 -7L6.7 -2.2L4.1 5.7L-4.1 5.7L-6.7 -2.2Z" stroke="#2083b1" fill="none" stroke-width="2"></path></g><g transform="translate(18 516)"><path d="M0 -10L9.5 -3.1L5.9 8.1L-5.9 8.1L-9.5 -3.1Z" stroke="#2083b1" fill="none" stroke-width="2"></path></g><g transform="translate(681 282)"><path d="M0 -11L10.5 -3.4L6.5 8.9L-6.5 8.9L-10.5 -3.4Z" stroke="#2083b1" fill="none" stroke-width="2"></path></g><g transform="translate(104 282)"><path d="M0 -11L10.5 -3.4L6.5 8.9L-6.5 8.9L-10.5 -3.4Z" stroke="#2083b1" fill="none" stroke-width="2"></path></g><g transform="translate(929 498)"><path d="M0 -6L5.7 -1.9L3.5 4.9L-3.5 4.9L-5.7 -1.9Z" stroke="#2083b1" fill="none" stroke-width="2"></path></g><g transform="translate(668 112)"><path d="M0 -9L8.6 -2.8L5.3 7.3L-5.3 7.3L-8.6 -2.8Z" stroke="#2083b1" fill="none" stroke-width="2"></path></g><g transform="translate(259 294)"><path d="M0 -8L7.6 -2.5L4.7 6.5L-4.7 6.5L-7.6 -2.5Z" stroke="#2083b1" fill="none" stroke-width="2"></path></g><g transform="translate(395 177)"><path d="M0 -1L1 -0.3L0.6 0.8L-0.6 0.8L-1 -0.3Z" stroke="#2083b1" fill="none" stroke-width="2"></path></g><g transform="translate(132 518)"><path d="M0 -2L1.9 -0.6L1.2 1.6L-1.2 1.6L-1.9 -0.6Z" stroke="#2083b1" fill="none" stroke-width="2"></path></g><g transform="translate(895 328)"><path d="M0 -11L10.5 -3.4L6.5 8.9L-6.5 8.9L-10.5 -3.4Z" stroke="#2083b1" fill="none" stroke-width="2"></path></g><g transform="translate(835 208)"><path d="M0 -1L1 -0.3L0.6 0.8L-0.6 0.8L-1 -0.3Z" stroke="#2083b1" fill="none" stroke-width="2"></path></g><g transform="translate(104 182)"><path d="M0 -10L9.5 -3.1L5.9 8.1L-5.9 8.1L-9.5 -3.1Z" stroke="#2083b1" fill="none" stroke-width="2"></path></g><g transform="translate(601 527)"><path d="M0 -11L10.5 -3.4L6.5 8.9L-6.5 8.9L-10.5 -3.4Z" stroke="#2083b1" fill="none" stroke-width="2"></path></g><g transform="translate(288 16)"><path d="M0 -2L1.9 -0.6L1.2 1.6L-1.2 1.6L-1.9 -0.6Z" stroke="#2083b1" fill="none" stroke-width="2"></path></g><g transform="translate(108 333)"><path d="M0 -6L5.7 -1.9L3.5 4.9L-3.5 4.9L-5.7 -1.9Z" stroke="#2083b1" fill="none" stroke-width="2"></path></g><g transform="translate(830 375)"><path d="M0 -3L2.9 -0.9L1.8 2.4L-1.8 2.4L-2.9 -0.9Z" stroke="#2083b1" fill="none" stroke-width="2"></path></g><g transform="translate(718 13)"><path d="M0 -9L8.6 -2.8L5.3 7.3L-5.3 7.3L-8.6 -2.8Z" stroke="#2083b1" fill="none" stroke-width="2"></path></g><g transform="translate(638 298)"><path d="M0 -2L1.9 -0.6L1.2 1.6L-1.2 1.6L-1.9 -0.6Z" stroke="#2083b1" fill="none" stroke-width="2"></path></g><g transform="translate(906 484)"><path d="M0 -7L6.7 -2.2L4.1 5.7L-4.1 5.7L-6.7 -2.2Z" stroke="#2083b1" fill="none" stroke-width="2"></path></g><g transform="translate(123 88)"><path d="M0 -7L6.7 -2.2L4.1 5.7L-4.1 5.7L-6.7 -2.2Z" stroke="#2083b1" fill="none" stroke-width="2"></path></g><g transform="translate(619 211)"><path d="M0 -3L2.9 -0.9L1.8 2.4L-1.8 2.4L-2.9 -0.9Z" stroke="#2083b1" fill="none" stroke-width="2"></path></g><g transform="translate(328 353)"><path d="M0 -10L9.5 -3.1L5.9 8.1L-5.9 8.1L-9.5 -3.1Z" stroke="#2083b1" fill="none" stroke-width="2"></path></g><g transform="translate(941 16)"><path d="M0 -11L10.5 -3.4L6.5 8.9L-6.5 8.9L-10.5 -3.4Z" stroke="#2083b1" fill="none" stroke-width="2"></path></g><g transform="translate(265 486)"><path d="M0 -9L8.6 -2.8L5.3 7.3L-5.3 7.3L-8.6 -2.8Z" stroke="#2083b1" fill="none" stroke-width="2"></path></g><g transform="translate(790 454)"><path d="M0 -7L6.7 -2.2L4.1 5.7L-4.1 5.7L-6.7 -2.2Z" stroke="#2083b1" fill="none" stroke-width="2"></path></g><g transform="translate(812 102)"><path d="M0 -8L7.6 -2.5L4.7 6.5L-4.7 6.5L-7.6 -2.5Z" stroke="#2083b1" fill="none" stroke-width="2"></path></g><g transform="translate(369 60)"><path d="M0 -11L10.5 -3.4L6.5 8.9L-6.5 8.9L-10.5 -3.4Z" stroke="#2083b1" fill="none" stroke-width="2"></path></g><g transform="translate(370 526)"><path d="M0 -8L7.6 -2.5L4.7 6.5L-4.7 6.5L-7.6 -2.5Z" stroke="#2083b1" fill="none" stroke-width="2"></path></g><g transform="translate(880 462)"><path d="M0 -9L8.6 -2.8L5.3 7.3L-5.3 7.3L-8.6 -2.8Z" stroke="#2083b1" fill="none" stroke-width="2"></path></g><g transform="translate(580 49)"><path d="M0 -5L4.8 -1.5L2.9 4L-2.9 4L-4.8 -1.5Z" stroke="#2083b1" fill="none" stroke-width="2"></path></g><g transform="translate(49 119)"><path d="M0 -3L2.9 -0.9L1.8 2.4L-1.8 2.4L-2.9 -0.9Z" stroke="#2083b1" fill="none" stroke-width="2"></path></g><g transform="translate(15 368)"><path d="M0 -1L1 -0.3L0.6 0.8L-0.6 0.8L-1 -0.3Z" stroke="#2083b1" fill="none" stroke-width="2"></path></g><g transform="translate(213 60)"><path d="M0 -1L1 -0.3L0.6 0.8L-0.6 0.8L-1 -0.3Z" stroke="#2083b1" fill="none" stroke-width="2"></path></g><g transform="translate(327 268)"><path d="M0 -8L7.6 -2.5L4.7 6.5L-4.7 6.5L-7.6 -2.5Z" stroke="#2083b1" fill="none" stroke-width="2"></path></g><g transform="translate(787 15)"><path d="M0 -9L8.6 -2.8L5.3 7.3L-5.3 7.3L-8.6 -2.8Z" stroke="#2083b1" fill="none" stroke-width="2"></path></g><g transform="translate(96 404)"><path d="M0 -6L5.7 -1.9L3.5 4.9L-3.5 4.9L-5.7 -1.9Z" stroke="#2083b1" fill="none" stroke-width="2"></path></g><g transform="translate(914 255)"><path d="M0 -7L6.7 -2.2L4.1 5.7L-4.1 5.7L-6.7 -2.2Z" stroke="#2083b1" fill="none" stroke-width="2"></path></g><g transform="translate(411 129)"><path d="M0 -1L1 -0.3L0.6 0.8L-0.6 0.8L-1 -0.3Z" stroke="#2083b1" fill="none" stroke-width="2"></path></g><g transform="translate(644 324)"><path d="M0 -4L3.8 -1.2L2.4 3.2L-2.4 3.2L-3.8 -1.2Z" stroke="#2083b1" fill="none" stroke-width="2"></path></g><g transform="translate(732 298)"><path d="M0 -1L1 -0.3L0.6 0.8L-0.6 0.8L-1 -0.3Z" stroke="#2083b1" fill="none" stroke-width="2"></path></g><g transform="translate(869 248)"><path d="M0 -6L5.7 -1.9L3.5 4.9L-3.5 4.9L-5.7 -1.9Z" stroke="#2083b1" fill="none" stroke-width="2"></path></g><g transform="translate(524 466)"><path d="M0 -5L4.8 -1.5L2.9 4L-2.9 4L-4.8 -1.5Z" stroke="#2083b1" fill="none" stroke-width="2"></path></g><g transform="translate(947 179)"><path d="M0 -3L2.9 -0.9L1.8 2.4L-1.8 2.4L-2.9 -0.9Z" stroke="#2083b1" fill="none" stroke-width="2"></path></g><g transform="translate(291 407)"><path d="M0 -3L2.9 -0.9L1.8 2.4L-1.8 2.4L-2.9 -0.9Z" stroke="#2083b1" fill="none" stroke-width="2"></path></g><g transform="translate(382 341)"><path d="M0 -6L5.7 -1.9L3.5 4.9L-3.5 4.9L-5.7 -1.9Z" stroke="#2083b1" fill="none" stroke-width="2"></path></g><g transform="translate(816 14)"><path d="M0 -5L4.8 -1.5L2.9 4L-2.9 4L-4.8 -1.5Z" stroke="#2083b1" fill="none" stroke-width="2"></path></g><g transform="translate(946 447)"><path d="M0 -8L7.6 -2.5L4.7 6.5L-4.7 6.5L-7.6 -2.5Z" stroke="#2083b1" fill="none" stroke-width="2"></path></g><g transform="translate(47 185)"><path d="M0 -1L1 -0.3L0.6 0.8L-0.6 0.8L-1 -0.3Z" stroke="#2083b1" fill="none" stroke-width="2"></path></g></g></svg>